<?xml version="1.0" encoding="UTF-8" ?>
<!DOCTYPE svg PUBLIC "-//W3C//DTD SVG 1.1//EN" "http://www.w3.org/Graphics/SVG/1.1/DTD/svg11.dtd">
<svg width="349pt" height="105pt" viewBox="0 0 349 105" version="1.1" xmlns="http://www.w3.org/2000/svg">
<path fill="#fdfdfd" d=" M 0.00 0.00 L 349.00 0.00 L 349.00 105.00 L 0.00 105.00 L 0.00 0.00 Z" />
<path fill="#000000" d=" M 302.18 16.05 C 304.42 11.53 306.43 5.59 311.84 4.08 C 315.46 2.86 319.10 4.86 321.67 7.30 C 324.09 9.67 327.90 9.03 330.54 7.40 C 335.02 4.97 340.57 7.54 343.19 11.53 C 343.56 14.00 344.05 16.45 344.44 18.92 L 345.03 18.52 C 344.96 18.83 344.81 19.44 344.73 19.74 C 346.51 24.20 348.08 29.26 346.52 34.01 C 345.36 35.34 343.83 36.27 342.57 37.49 C 341.48 38.89 340.95 40.59 340.48 42.27 C 339.50 41.34 338.51 40.42 337.51 39.52 L 336.12 39.87 C 335.76 40.99 335.46 42.13 335.16 43.26 C 334.61 42.86 333.49 42.07 332.93 41.67 C 334.69 40.66 336.10 39.19 337.35 37.61 C 340.17 37.77 342.61 36.27 344.74 34.57 C 346.02 33.66 346.67 31.96 346.59 30.41 C 346.32 23.91 343.21 17.95 342.49 11.48 C 340.03 8.38 336.29 6.82 332.34 7.46 C 330.20 8.17 328.12 9.07 325.97 9.75 C 322.51 9.46 320.11 6.80 317.36 5.04 C 314.90 4.49 312.11 4.06 309.85 5.47 C 307.66 7.00 306.33 9.37 304.87 11.53 C 302.95 17.08 297.82 21.77 298.79 28.06 C 300.25 30.60 302.89 32.11 305.19 33.80 C 306.24 35.72 307.33 37.61 308.49 39.47 C 312.26 40.96 315.94 42.88 320.01 43.40 C 324.06 44.18 328.15 43.27 332.06 42.21 C 331.80 44.46 332.10 46.71 332.51 48.92 C 332.56 49.24 332.65 49.87 332.70 50.19 L 332.91 51.70 C 332.37 51.56 331.28 51.28 330.74 51.13 L 330.71 50.51 C 330.67 48.57 330.70 46.64 330.69 44.70 C 328.85 45.37 327.01 46.06 325.17 46.72 C 325.00 46.21 324.66 45.21 324.49 44.70 C 323.58 44.49 321.78 44.05 320.88 43.84 C 320.72 44.04 320.41 44.46 320.26 44.67 C 316.01 44.10 312.16 42.11 308.13 40.79 C 308.68 42.81 309.30 44.81 309.81 46.83 C 308.42 47.46 307.28 48.44 306.38 49.65 C 305.39 49.67 304.41 49.69 303.43 49.71 C 303.44 49.11 303.47 47.90 303.48 47.30 C 301.68 46.79 301.39 45.22 301.34 43.62 C 302.02 43.61 303.38 43.59 304.07 43.58 C 305.06 41.88 306.01 40.14 306.68 38.28 C 305.85 37.09 305.03 35.88 304.22 34.67 C 301.30 35.77 298.80 37.65 296.91 40.13 C 297.22 37.86 299.66 36.73 301.01 35.09 C 300.52 32.17 298.55 29.82 297.76 27.02 C 298.20 23.01 299.97 19.36 302.18 16.05 Z" />
<path fill="#dfbe01" d=" M 309.85 5.47 C 312.11 4.06 314.90 4.49 317.36 5.04 C 316.03 5.33 314.73 5.67 313.44 6.07 C 313.06 6.40 312.30 7.06 311.92 7.39 C 307.63 10.28 306.11 15.53 306.70 20.48 C 305.88 23.60 305.04 26.73 304.86 29.97 C 304.82 30.38 304.73 31.20 304.69 31.61 C 305.80 30.07 306.76 28.40 308.11 27.04 C 310.07 25.34 312.79 25.11 315.18 24.40 C 312.24 26.28 308.50 28.22 307.73 31.95 C 307.79 34.47 308.24 36.96 308.49 39.47 C 307.33 37.61 306.24 35.72 305.19 33.80 C 302.89 32.11 300.25 30.60 298.79 28.06 C 297.82 21.77 302.95 17.08 304.87 11.53 C 306.33 9.37 307.66 7.00 309.85 5.47 Z" />
<path fill="#fde32c" d=" M 311.92 7.39 C 312.30 7.06 313.06 6.40 313.44 6.07 C 314.73 5.67 316.03 5.33 317.36 5.04 C 320.11 6.80 322.51 9.46 325.97 9.75 C 324.91 14.38 324.00 19.04 323.06 23.70 C 322.05 23.60 320.04 23.40 319.04 23.30 C 320.95 18.77 321.97 12.79 318.09 8.97 C 316.57 7.12 314.06 7.31 311.92 7.39 Z" />
<path fill="#000000" d=" M 311.92 7.39 C 314.06 7.31 316.57 7.12 318.09 8.97 C 321.97 12.79 320.95 18.77 319.04 23.30 C 320.04 23.40 322.05 23.60 323.06 23.70 C 324.27 23.91 325.47 24.15 326.68 24.42 C 326.32 20.39 325.97 15.88 328.81 12.58 C 330.10 10.31 332.78 9.90 335.13 9.59 C 339.59 11.80 341.81 17.44 340.02 22.08 C 339.33 24.85 337.30 26.91 335.19 28.67 C 336.65 30.41 338.00 32.28 338.48 34.55 C 337.99 33.82 337.01 32.36 336.52 31.63 C 336.21 30.54 335.55 29.75 334.53 29.25 C 332.58 27.52 330.23 26.39 327.95 25.18 C 328.48 23.91 328.23 22.49 328.47 21.16 C 329.87 20.10 331.09 21.27 331.97 22.34 C 331.44 23.58 330.95 24.83 330.46 26.08 C 331.99 26.69 333.52 27.32 335.04 27.97 C 340.00 24.65 341.40 17.04 337.71 12.35 C 336.12 10.13 332.54 9.46 330.67 11.65 C 327.01 15.02 326.29 20.26 327.38 24.93 C 323.83 24.43 320.28 23.84 316.69 23.66 C 320.68 21.03 320.57 15.25 319.01 11.25 C 317.59 7.56 312.35 7.05 309.90 9.97 C 306.25 14.07 306.47 20.61 309.70 24.89 C 310.65 24.76 312.56 24.50 313.52 24.37 C 313.80 23.95 314.38 23.10 314.66 22.67 C 314.55 21.83 314.34 20.14 314.23 19.29 C 315.44 19.66 318.35 18.30 317.72 20.73 C 318.18 22.84 315.28 22.94 314.12 24.04 L 315.87 24.18 L 315.18 24.40 C 312.79 25.11 310.07 25.34 308.11 27.04 C 306.76 28.40 305.80 30.07 304.69 31.61 C 304.73 31.20 304.82 30.38 304.86 29.97 C 306.03 28.20 307.53 26.69 309.25 25.44 C 308.36 23.81 307.49 22.16 306.70 20.48 C 306.11 15.53 307.63 10.28 311.92 7.39 Z" />
<path fill="#dfbe01" d=" M 325.97 9.75 C 328.12 9.07 330.20 8.17 332.34 7.46 C 333.25 8.19 334.18 8.90 335.13 9.59 C 332.78 9.90 330.10 10.31 328.81 12.58 C 325.97 15.88 326.32 20.39 326.68 24.42 C 325.47 24.15 324.27 23.91 323.06 23.70 C 324.00 19.04 324.91 14.38 325.97 9.75 Z" />
<path fill="#fde32c" d=" M 332.34 7.46 C 336.29 6.82 340.03 8.38 342.49 11.48 C 343.21 17.95 346.32 23.91 346.59 30.41 C 344.52 30.59 342.62 33.02 344.74 34.57 C 342.61 36.27 340.17 37.77 337.35 37.61 C 336.10 39.19 334.69 40.66 332.93 41.67 L 332.06 42.21 C 328.15 43.27 324.06 44.18 320.01 43.40 C 315.94 42.88 312.26 40.96 308.49 39.47 C 308.24 36.96 307.79 34.47 307.73 31.95 C 308.50 28.22 312.24 26.28 315.18 24.40 L 315.87 24.18 L 314.12 24.04 C 314.76 23.94 316.05 23.75 316.69 23.66 C 320.28 23.84 323.83 24.43 327.38 24.93 L 327.95 25.18 C 330.23 26.39 332.58 27.52 334.53 29.25 C 334.19 31.01 334.86 31.81 336.52 31.63 C 337.01 32.36 337.99 33.82 338.48 34.55 C 338.00 32.28 336.65 30.41 335.19 28.67 C 337.30 26.91 339.33 24.85 340.02 22.08 C 341.81 17.44 339.59 11.80 335.13 9.59 C 334.18 8.90 333.25 8.19 332.34 7.46 Z" />
<path fill="#fdfdfd" d=" M 309.90 9.97 C 312.35 7.05 317.59 7.56 319.01 11.25 C 320.57 15.25 320.68 21.03 316.69 23.66 C 316.05 23.75 314.76 23.94 314.12 24.04 C 315.28 22.94 318.18 22.84 317.72 20.73 C 318.35 18.30 315.44 19.66 314.23 19.29 C 314.34 20.14 314.55 21.83 314.66 22.67 C 314.38 23.10 313.80 23.95 313.52 24.37 C 312.56 24.50 310.65 24.76 309.70 24.89 C 306.47 20.61 306.25 14.07 309.90 9.97 Z" />
<path fill="#fdfdfd" d=" M 330.67 11.65 C 332.54 9.46 336.12 10.13 337.71 12.35 C 341.40 17.04 340.00 24.65 335.04 27.97 C 333.52 27.32 331.99 26.69 330.46 26.08 C 330.95 24.83 331.44 23.58 331.97 22.34 C 331.09 21.27 329.87 20.10 328.47 21.16 C 328.23 22.49 328.48 23.91 327.95 25.18 L 327.38 24.93 C 326.29 20.26 327.01 15.02 330.67 11.65 Z" />
<path fill="#fde32c" d=" M 304.86 29.97 C 305.04 26.73 305.88 23.60 306.70 20.48 C 307.49 22.16 308.36 23.81 309.25 25.44 C 307.53 26.69 306.03 28.20 304.86 29.97 Z" />
<path fill="#c5d2ca" d=" M 334.53 29.25 C 335.55 29.75 336.21 30.54 336.52 31.63 C 334.86 31.81 334.19 31.01 334.53 29.25 Z" />
<path fill="#c5d2ca" d=" M 344.74 34.57 C 342.62 33.02 344.52 30.59 346.59 30.41 C 346.67 31.96 346.02 33.66 344.74 34.57 Z" />
<path fill="#dfbe01" d=" M 311.73 31.03 C 314.18 30.79 317.93 30.57 318.17 33.94 C 315.81 35.55 313.70 32.05 311.73 31.03 Z" />
<path fill="#000000" d=" M 79.79 42.75 C 84.25 38.79 87.89 33.52 93.85 31.69 C 99.63 30.79 103.41 35.69 106.13 39.99 C 109.05 39.02 110.18 34.94 113.60 34.50 C 119.40 33.66 125.26 34.75 130.93 35.96 C 131.53 35.15 132.13 34.35 132.74 33.54 C 135.91 33.28 139.10 33.27 142.28 33.45 C 145.72 36.80 146.03 41.83 146.93 46.27 C 153.17 38.33 163.35 35.11 172.98 33.74 C 176.38 33.66 180.03 33.17 183.17 34.80 C 187.92 37.61 190.64 42.60 192.73 47.52 C 197.29 43.81 200.55 37.68 206.85 36.81 C 209.64 36.42 212.51 36.59 215.11 37.75 C 216.01 38.54 216.89 39.38 217.95 39.99 C 220.59 38.31 221.92 34.95 225.13 34.02 C 230.08 32.75 235.71 32.21 240.39 34.66 C 244.65 37.47 248.29 41.42 250.17 46.22 C 254.80 43.23 257.64 38.02 262.89 35.87 C 267.72 32.87 273.59 33.12 279.02 33.69 C 285.29 35.00 290.19 39.23 294.88 43.28 C 295.46 42.18 295.90 40.94 296.91 40.13 C 296.44 41.13 295.96 42.13 295.46 43.11 C 295.36 48.38 298.04 54.53 304.01 54.85 C 306.72 55.52 307.87 52.31 310.16 51.73 C 314.59 52.68 319.02 53.77 323.59 53.78 C 326.91 57.75 331.97 59.05 336.99 58.62 C 336.84 58.18 336.52 57.32 336.37 56.89 L 339.22 56.58 C 338.27 57.47 337.32 58.35 336.37 59.23 C 335.19 59.21 334.00 59.19 332.83 59.17 C 332.50 62.75 330.43 65.77 329.40 69.14 C 326.85 77.09 324.35 85.34 318.84 91.82 C 316.79 94.29 313.67 95.42 311.03 97.08 C 302.33 98.06 293.51 98.93 284.80 97.58 C 282.98 98.56 281.11 99.45 279.19 100.23 C 273.42 100.32 267.42 101.06 261.88 98.98 C 258.67 98.13 255.92 96.26 253.07 94.65 C 248.59 94.05 243.88 94.02 239.63 95.72 C 230.66 98.92 221.12 96.67 211.94 96.22 C 208.61 99.33 204.31 100.89 199.75 100.31 C 197.15 99.01 195.01 96.44 191.91 96.49 C 187.95 96.45 183.55 95.79 180.07 98.11 C 175.63 101.01 170.16 101.67 164.97 101.19 C 159.83 100.35 154.71 99.16 150.02 96.79 C 145.98 96.82 141.92 96.57 137.89 96.86 C 134.19 97.88 130.95 100.42 126.99 100.46 C 119.80 100.89 111.87 101.57 105.59 97.36 C 98.79 94.13 91.66 97.97 85.14 100.08 C 74.17 101.80 61.43 100.58 53.20 92.33 C 49.19 93.45 46.32 96.37 44.09 99.74 C 40.16 99.07 41.34 94.63 42.15 91.98 C 43.36 88.53 46.60 86.62 49.30 84.46 C 48.86 81.26 50.07 78.29 51.32 75.43 C 49.03 77.82 46.77 80.33 43.81 81.89 C 40.61 83.77 36.80 83.82 33.22 84.30 C 33.54 87.18 34.75 90.94 32.01 93.04 C 28.67 95.66 26.48 100.01 22.02 100.95 C 17.99 101.86 13.75 101.17 9.81 100.08 C 6.48 98.97 5.73 95.10 5.30 92.06 C 3.46 81.80 2.38 71.38 2.60 60.95 C 2.53 56.09 2.62 51.05 4.63 46.53 C 6.39 43.11 9.83 41.06 12.28 38.18 C 16.77 33.30 23.78 32.35 30.07 32.46 C 39.00 32.29 48.67 33.19 55.85 39.09 C 58.27 36.28 61.26 33.92 64.81 32.72 C 67.06 32.87 69.53 32.43 71.53 33.72 C 73.01 34.84 74.22 36.26 75.54 37.55 C 76.16 41.28 75.37 45.05 73.56 48.34 C 75.11 49.40 76.86 50.06 78.57 50.77 C 78.28 48.12 77.41 44.75 79.79 42.75 Z" />
<path fill="#dfbe01" d=" M 324.87 33.46 C 327.32 31.61 331.50 32.87 331.32 36.35 C 329.08 35.60 326.91 34.65 324.87 33.46 Z" />
<path fill="#ac9300" d=" M 301.94 33.21 C 305.32 33.41 300.32 36.16 301.94 33.21 Z" />
<path fill="#08de1b" d=" M 89.51 36.54 C 92.29 34.42 96.53 32.97 99.60 35.32 C 103.68 38.81 105.51 44.14 106.47 49.27 C 107.00 44.43 109.29 39.04 113.87 36.80 C 120.21 35.44 126.56 37.79 132.86 38.42 C 133.00 34.91 137.13 35.00 139.67 35.38 C 142.40 35.64 142.89 38.68 143.52 40.82 C 144.92 45.75 145.16 50.89 145.86 55.94 C 144.08 55.42 142.32 54.67 140.46 54.55 C 137.99 54.54 136.01 56.22 133.98 57.38 C 133.12 55.80 132.25 54.23 131.50 52.59 C 130.79 50.44 130.95 47.54 128.76 46.24 C 126.31 45.83 123.34 45.59 121.28 47.24 C 119.84 49.07 119.63 51.51 119.19 53.71 C 118.11 54.94 117.04 56.18 115.85 57.30 C 113.89 56.26 112.35 54.34 110.28 53.60 C 107.84 54.99 105.72 56.88 103.39 58.45 C 103.01 57.04 102.63 55.64 102.25 54.23 C 99.52 53.74 97.20 55.10 95.23 56.85 C 94.35 55.83 93.46 54.81 92.58 53.79 C 90.85 54.36 89.06 54.69 87.24 54.79 C 86.24 55.44 85.24 56.11 84.25 56.77 C 83.22 55.73 82.19 54.68 81.16 53.64 C 78.40 54.74 75.66 56.20 72.65 56.45 C 71.22 55.45 70.02 54.17 68.77 52.96 C 67.17 53.94 65.61 55.02 63.88 55.76 C 62.06 55.14 60.43 54.08 58.65 53.39 C 57.32 53.37 56.17 54.27 54.95 54.71 C 53.91 54.08 52.87 53.43 51.83 52.79 C 49.56 53.82 47.90 55.69 46.11 57.36 C 44.66 55.61 43.57 53.60 42.39 51.68 C 38.68 46.19 28.78 47.02 27.15 53.85 C 26.64 53.75 25.63 53.56 25.13 53.47 C 23.37 54.73 21.61 55.98 19.85 57.23 C 20.12 55.75 20.40 54.27 20.68 52.79 C 18.24 54.02 15.77 55.17 13.25 56.22 C 12.24 54.97 11.22 53.73 10.25 52.44 C 10.43 47.48 10.79 41.39 15.43 38.41 C 21.91 33.74 30.47 34.50 38.02 34.96 C 45.01 35.77 53.82 37.47 56.52 45.01 C 56.87 38.19 65.65 32.14 71.58 36.57 C 75.26 39.12 72.82 43.66 72.02 47.03 C 71.30 48.61 72.05 50.62 73.69 51.25 C 77.88 53.17 83.60 53.50 87.14 50.11 C 89.44 48.00 86.50 45.29 86.04 42.97 C 84.70 40.17 87.49 37.95 89.51 36.54 Z" />
<path fill="#08de1b" d=" M 224.16 37.11 C 229.03 34.86 235.08 34.20 239.84 37.08 C 245.88 40.73 248.88 47.68 250.28 54.33 C 248.97 55.64 248.58 58.59 246.42 58.68 C 244.61 57.21 243.85 53.71 241.04 54.18 C 238.73 54.39 236.83 55.87 234.88 56.97 C 234.20 55.57 233.56 54.16 232.93 52.75 C 232.48 52.88 231.59 53.14 231.14 53.27 C 228.43 54.05 225.72 54.84 223.02 55.65 C 221.18 54.72 219.20 52.98 217.04 54.09 C 215.36 55.38 214.24 57.23 212.85 58.80 C 212.36 58.07 211.37 56.63 210.88 55.90 C 210.04 54.09 208.28 53.29 206.45 52.83 C 205.72 54.79 205.00 56.75 204.26 58.71 C 201.70 56.23 198.94 53.95 195.79 52.26 C 197.05 47.70 199.17 42.96 203.42 40.48 C 206.57 38.74 210.79 37.86 213.99 39.96 C 216.25 41.51 217.81 43.83 219.87 45.62 C 221.09 42.75 221.17 38.83 224.16 37.11 Z" />
<path fill="#08de1b" d=" M 151.56 44.59 C 159.52 38.08 170.49 35.15 180.67 36.46 C 187.31 38.79 189.99 46.29 191.82 52.48 C 189.72 54.20 187.86 56.19 186.17 58.32 C 185.07 56.88 184.19 55.22 182.71 54.13 C 181.35 53.56 179.91 54.43 178.54 54.58 C 176.71 52.65 175.13 49.57 172.10 49.64 C 168.54 49.44 165.80 52.02 163.35 54.21 C 160.63 54.82 157.93 55.75 155.12 55.72 C 153.16 55.33 151.33 54.47 149.46 53.79 C 149.14 50.62 148.53 46.73 151.56 44.59 Z" />
<path fill="#08de1b" d=" M 251.22 55.20 C 252.79 44.92 261.63 36.34 272.08 35.56 C 283.97 34.80 294.77 43.70 298.38 54.70 C 295.01 54.26 291.65 54.85 288.77 56.70 C 288.04 55.97 287.31 55.23 286.59 54.50 C 285.89 54.73 285.20 54.96 284.52 55.19 C 282.38 51.96 278.92 49.43 274.99 49.13 C 271.70 49.61 268.26 51.82 267.89 55.39 C 265.40 56.01 263.17 54.69 261.03 53.64 C 259.59 55.03 258.16 56.43 256.73 57.83 C 254.93 56.87 253.10 55.96 251.22 55.20 Z" />
<path fill="#c5d2ca" d=" M 296.91 40.13 C 298.80 37.65 301.30 35.77 304.22 34.67 C 305.03 35.88 305.85 37.09 306.68 38.28 C 306.01 40.14 305.06 41.88 304.07 43.58 C 303.38 43.59 302.02 43.61 301.34 43.62 C 301.39 45.22 301.68 46.79 303.48 47.30 C 303.47 47.90 303.44 49.11 303.43 49.71 C 304.41 49.69 305.39 49.67 306.38 49.65 C 307.28 48.44 308.42 47.46 309.81 46.83 C 309.30 44.81 308.68 42.81 308.13 40.79 C 312.16 42.11 316.01 44.10 320.26 44.67 C 321.58 44.99 323.30 44.64 324.07 46.03 C 324.49 48.95 323.96 52.39 326.43 54.56 C 328.75 57.76 333.02 56.51 336.37 56.89 C 336.52 57.32 336.84 58.18 336.99 58.62 C 331.97 59.05 326.91 57.75 323.59 53.78 C 319.02 53.77 314.59 52.68 310.16 51.73 C 307.87 52.31 306.72 55.52 304.01 54.85 C 298.04 54.53 295.36 48.38 295.46 43.11 C 295.96 42.13 296.44 41.13 296.91 40.13 Z" />
<path fill="#c5d2ca" d=" M 340.48 42.27 C 340.95 40.59 341.48 38.89 342.57 37.49 C 340.94 41.63 344.77 44.87 344.26 48.96 C 344.34 50.90 343.66 52.73 342.81 54.44 C 342.32 53.26 341.86 52.07 341.44 50.88 C 342.46 46.29 339.23 42.73 336.12 39.87 L 337.51 39.52 C 338.51 40.42 339.50 41.34 340.48 42.27 Z" />
<path fill="#ac9300" d=" M 335.16 43.26 C 335.46 42.13 335.76 40.99 336.12 39.87 C 339.23 42.73 342.46 46.29 341.44 50.88 C 341.26 51.61 340.91 53.07 340.73 53.80 C 339.28 54.84 337.84 55.89 336.37 56.89 C 333.02 56.51 328.75 57.76 326.43 54.56 C 323.96 52.39 324.49 48.95 324.07 46.03 C 323.30 44.64 321.58 44.99 320.26 44.67 C 320.41 44.46 320.72 44.04 320.88 43.84 C 321.78 44.05 323.58 44.49 324.49 44.70 C 324.66 45.21 325.00 46.21 325.17 46.72 C 325.70 49.16 326.87 51.30 329.65 51.40 C 327.52 50.55 326.41 48.85 326.21 46.64 C 327.11 46.68 328.89 46.78 329.79 46.83 C 330.09 48.05 330.40 49.28 330.71 50.51 L 330.74 51.13 C 330.66 51.22 330.49 51.38 330.41 51.46 C 330.49 51.38 330.66 51.22 330.74 51.13 C 331.28 51.28 332.37 51.56 332.91 51.70 L 332.70 50.19 C 333.84 51.27 334.19 52.46 333.75 53.76 C 332.16 54.30 330.51 53.65 328.91 53.60 C 330.54 54.13 332.19 54.58 333.86 55.00 C 335.46 53.66 337.23 52.52 339.13 51.63 C 337.09 51.50 334.85 51.37 335.18 48.69 C 336.55 48.07 337.93 47.48 339.33 46.93 C 336.98 47.31 334.65 47.85 332.51 48.92 C 332.10 46.71 331.80 44.46 332.06 42.21 L 332.93 41.67 C 333.49 42.07 334.61 42.86 335.16 43.26 Z" />
<path fill="#c5d2ca" d=" M 325.17 46.72 C 327.01 46.06 328.85 45.37 330.69 44.70 C 330.70 46.64 330.67 48.57 330.71 50.51 C 330.40 49.28 330.09 48.05 329.79 46.83 C 328.89 46.78 327.11 46.68 326.21 46.64 C 326.41 48.85 327.52 50.55 329.65 51.40 C 326.87 51.30 325.70 49.16 325.17 46.72 Z" />
<path fill="#c5d2ca" d=" M 335.34 45.23 C 335.81 45.81 335.81 45.81 335.34 45.23 Z" />
<path fill="#000000" d=" M 121.28 47.24 C 123.34 45.59 126.31 45.83 128.76 46.24 C 130.95 47.54 130.79 50.44 131.50 52.59 C 131.02 54.02 130.76 55.57 129.90 56.84 C 126.74 60.23 119.38 58.94 119.19 53.71 C 119.63 51.51 119.84 49.07 121.28 47.24 Z" />
<path fill="#000000" d=" M 313.25 50.03 C 312.18 47.45 314.96 47.04 316.68 46.25 C 316.94 48.39 314.67 49.07 313.25 50.03 Z" />
<path fill="#000000" d=" M 317.52 49.97 C 318.30 47.97 320.21 47.30 322.16 46.99 C 321.82 49.39 319.69 50.10 317.52 49.97 Z" />
<path fill="#c5d2ca" d=" M 332.51 48.92 C 334.65 47.85 336.98 47.31 339.33 46.93 C 337.93 47.48 336.55 48.07 335.18 48.69 C 334.85 51.37 337.09 51.50 339.13 51.63 C 337.23 52.52 335.46 53.66 333.86 55.00 C 332.19 54.58 330.54 54.13 328.91 53.60 C 330.51 53.65 332.16 54.30 333.75 53.76 C 334.19 52.46 333.84 51.27 332.70 50.19 C 332.65 49.87 332.56 49.24 332.51 48.92 Z" />
<path fill="#000000" d=" M 27.15 53.85 C 28.78 47.02 38.68 46.19 42.39 51.68 C 42.27 55.67 41.77 60.64 37.62 62.53 C 32.20 65.37 25.53 59.69 27.15 53.85 Z" />
<path fill="#000000" d=" M 267.89 55.39 C 268.26 51.82 271.70 49.61 274.99 49.13 C 278.92 49.43 282.38 51.96 284.52 55.19 C 279.28 57.75 273.19 57.76 267.89 55.39 Z" />
<path fill="#c5d2ca" d=" M 330.41 51.46 C 330.49 51.38 330.66 51.22 330.74 51.13 C 330.66 51.22 330.49 51.38 330.41 51.46 Z" />
<path fill="#69f029" d=" M 42.39 51.68 C 43.57 53.60 44.66 55.61 46.11 57.36 C 47.90 55.69 49.56 53.82 51.83 52.79 C 52.87 53.43 53.91 54.08 54.95 54.71 C 56.17 54.27 57.32 53.37 58.65 53.39 C 60.43 54.08 62.06 55.14 63.88 55.76 C 65.61 55.02 67.17 53.94 68.77 52.96 C 70.02 54.17 71.22 55.45 72.65 56.45 C 75.66 56.20 78.40 54.74 81.16 53.64 C 82.19 54.68 83.22 55.73 84.25 56.77 C 85.24 56.11 86.24 55.44 87.24 54.79 C 89.06 54.69 90.85 54.36 92.58 53.79 C 93.46 54.81 94.35 55.83 95.23 56.85 C 97.20 55.10 99.52 53.74 102.25 54.23 C 102.63 55.64 103.01 57.04 103.39 58.45 C 105.72 56.88 107.84 54.99 110.28 53.60 C 112.35 54.34 113.89 56.26 115.85 57.30 C 117.04 56.18 118.11 54.94 119.19 53.71 C 119.38 58.94 126.74 60.23 129.90 56.84 C 130.76 55.57 131.02 54.02 131.50 52.59 C 132.25 54.23 133.12 55.80 133.98 57.38 C 136.01 56.22 137.99 54.54 140.46 54.55 C 142.32 54.67 144.08 55.42 145.86 55.94 C 146.03 62.16 146.51 68.45 145.59 74.63 C 143.83 73.11 142.32 71.34 140.98 69.45 C 139.05 71.62 136.97 73.67 134.49 75.20 C 134.73 71.80 134.78 68.39 134.76 64.97 C 134.01 66.72 133.37 69.02 131.03 68.92 C 124.56 69.64 117.94 70.45 111.48 69.37 C 109.11 69.20 108.37 66.83 107.42 65.06 C 107.23 68.39 106.61 71.68 105.84 74.92 C 104.01 74.03 102.60 72.59 101.37 71.01 C 98.85 72.43 96.28 73.75 93.65 74.96 C 92.74 73.27 91.83 71.59 90.91 69.91 C 89.54 70.62 88.16 71.33 86.80 72.08 C 87.59 70.64 88.30 69.16 89.01 67.69 C 86.44 66.36 83.54 65.85 80.76 66.82 C 77.04 67.84 73.16 68.11 69.33 67.66 C 68.68 68.05 68.03 68.45 67.38 68.86 C 70.57 69.00 72.20 71.61 73.61 74.05 C 72.11 73.27 70.61 72.51 69.11 71.75 C 67.71 72.76 66.31 73.78 64.91 74.80 C 63.09 73.39 61.25 72.00 59.41 70.61 C 61.44 68.31 64.47 68.21 67.32 68.52 C 67.23 68.08 67.06 67.21 66.97 66.77 C 61.52 66.70 59.12 60.84 57.33 56.56 C 57.11 63.14 55.16 70.16 49.33 73.95 C 48.24 73.22 47.15 72.50 46.05 71.78 C 44.31 72.83 42.45 73.65 40.50 74.22 C 39.99 73.29 39.49 72.36 38.98 71.43 C 36.76 72.44 34.36 72.84 31.97 72.21 C 30.68 72.60 29.41 73.01 28.13 73.41 C 27.22 72.16 26.97 69.99 25.10 69.85 C 23.24 70.75 21.59 72.00 19.89 73.18 C 18.59 72.44 17.29 71.70 16.00 70.96 C 14.42 72.04 12.84 73.12 11.26 74.20 C 10.58 66.96 9.82 59.72 10.25 52.44 C 11.22 53.73 12.24 54.97 13.25 56.22 C 15.77 55.17 18.24 54.02 20.68 52.79 C 20.40 54.27 20.12 55.75 19.85 57.23 C 21.61 55.98 23.37 54.73 25.13 53.47 C 25.63 53.56 26.64 53.75 27.15 53.85 C 25.53 59.69 32.20 65.37 37.62 62.53 C 41.77 60.64 42.27 55.67 42.39 51.68 Z" />
<path fill="#69f029" d=" M 186.17 58.32 C 187.86 56.19 189.72 54.20 191.82 52.48 C 193.33 58.68 194.18 65.14 193.26 71.50 C 190.84 72.09 188.52 72.96 186.15 73.69 C 185.20 71.94 184.54 70.06 183.58 68.32 C 180.01 69.60 178.20 73.75 174.84 75.61 C 172.88 73.91 170.89 71.52 168.05 71.64 C 165.90 71.47 164.59 73.42 163.12 74.62 C 162.49 73.17 161.86 71.73 161.22 70.29 C 159.20 71.78 157.25 73.41 154.97 74.50 C 152.83 74.06 151.18 72.55 149.45 71.33 C 148.41 71.98 147.37 72.64 146.33 73.29 C 148.07 65.45 154.76 58.50 162.95 57.75 C 167.69 57.28 171.45 60.83 175.91 61.68 C 179.32 61.06 179.93 57.26 178.54 54.58 C 179.91 54.43 181.35 53.56 182.71 54.13 C 184.19 55.22 185.07 56.88 186.17 58.32 Z" />
<path fill="#69f029" d=" M 195.79 52.26 C 198.94 53.95 201.70 56.23 204.26 58.71 C 205.00 56.75 205.72 54.79 206.45 52.83 C 208.28 53.29 210.04 54.09 210.88 55.90 C 209.94 57.62 208.80 59.55 209.42 61.59 C 210.76 66.27 214.06 70.02 215.90 74.48 C 214.89 73.23 213.83 72.02 212.80 70.80 C 209.37 71.54 205.91 72.40 202.90 74.27 C 201.95 73.41 201.00 72.56 200.06 71.70 C 198.36 72.60 196.66 73.50 194.96 74.39 C 193.80 67.05 193.87 59.47 195.79 52.26 Z" />
<path fill="#69f029" d=" M 223.02 55.65 C 225.72 54.84 228.43 54.05 231.14 53.27 C 229.46 58.69 228.93 64.47 226.62 69.69 C 225.71 71.78 222.78 72.69 221.11 70.93 C 217.59 67.48 215.61 62.83 212.85 58.80 C 214.24 57.23 215.36 55.38 217.04 54.09 C 219.20 52.98 221.18 54.72 223.02 55.65 Z" />
<path fill="#fde32c" d=" M 308.19 59.75 C 305.79 57.31 307.80 50.77 311.85 52.72 C 315.73 54.40 319.92 54.77 324.11 54.56 C 325.84 56.61 325.48 59.13 324.60 61.45 C 323.97 61.74 322.72 62.31 322.09 62.60 C 321.80 62.71 321.23 62.93 320.94 63.05 C 316.56 63.20 311.55 62.94 308.19 59.75 Z" />
<path fill="#c5d2ca" d=" M 121.51 53.98 C 122.49 52.94 124.14 54.74 123.44 55.79 C 122.42 56.83 120.82 55.05 121.51 53.98 Z" />
<path fill="#69f029" d=" M 149.46 53.79 C 151.33 54.47 153.16 55.33 155.12 55.72 C 157.93 55.75 160.63 54.82 163.35 54.21 C 161.19 56.56 158.39 58.96 154.94 58.33 C 152.20 58.31 150.59 55.95 149.46 53.79 Z" />
<path fill="#69f029" d=" M 234.88 56.97 C 236.83 55.87 238.73 54.39 241.04 54.18 C 243.85 53.71 244.61 57.21 246.42 58.68 C 248.58 58.59 248.97 55.64 250.28 54.33 C 250.29 55.01 250.31 56.37 250.33 57.05 C 250.55 56.59 250.99 55.66 251.22 55.20 C 253.10 55.96 254.93 56.87 256.73 57.83 C 258.16 56.43 259.59 55.03 261.03 53.64 C 263.17 54.69 265.40 56.01 267.89 55.39 C 273.19 57.76 279.28 57.75 284.52 55.19 C 285.20 54.96 285.89 54.73 286.59 54.50 C 287.31 55.23 288.04 55.97 288.77 56.70 C 291.65 54.85 295.01 54.26 298.38 54.70 C 299.01 58.36 299.75 62.21 298.80 65.87 C 288.03 68.78 276.66 67.20 265.68 66.61 C 265.55 68.85 265.81 71.09 266.45 73.25 C 263.87 70.42 260.34 72.81 257.33 73.48 C 256.28 72.39 255.69 70.61 254.09 70.21 C 252.75 71.13 251.58 72.25 250.35 73.29 L 250.25 73.37 C 248.79 73.90 247.17 74.79 245.59 74.28 C 244.00 73.36 242.65 72.10 241.06 71.17 C 238.19 72.05 234.97 74.60 232.55 71.52 C 233.60 66.73 234.49 61.87 234.88 56.97 Z" />
<path fill="#000000" d=" M 341.04 54.21 C 342.86 54.13 341.02 56.47 340.17 56.63 C 338.18 56.93 339.90 54.15 341.04 54.21 Z" />
<path fill="#c5d2ca" d=" M 28.49 55.71 C 30.18 55.69 32.11 55.44 33.47 56.71 C 35.37 57.67 34.59 60.03 34.49 61.69 C 31.69 60.61 29.40 58.64 28.49 55.71 Z" />
<path fill="#c5d2ca" d=" M 301.06 54.77 L 303.07 55.51 C 303.66 60.35 303.38 65.33 301.62 69.92 C 300.78 69.44 299.94 68.96 299.10 68.48 C 303.68 65.39 300.48 59.26 301.06 54.77 Z" />
<path fill="#ac9300" d=" M 304.06 55.44 C 307.32 55.13 306.21 59.28 308.31 60.73 C 311.77 63.31 316.83 64.91 320.94 63.05 C 321.23 62.93 321.80 62.71 322.09 62.60 C 322.69 62.59 323.87 62.58 324.47 62.57 C 321.29 71.27 318.20 80.18 312.83 87.82 C 310.23 91.75 305.60 93.27 301.49 95.03 C 298.44 94.07 295.05 92.54 294.14 89.16 C 297.08 85.06 300.83 81.17 301.86 76.04 C 302.37 72.97 303.02 69.93 303.85 66.93 C 304.95 63.18 304.36 59.25 304.06 55.44 Z" />
<path fill="#fdfdfd" d=" M 323.34 57.14 C 323.74 57.75 323.74 57.75 323.34 57.14 Z" />
<path fill="#dfbe01" d=" M 324.47 62.57 C 325.21 61.04 326.10 59.58 326.90 58.08 C 328.60 58.37 330.29 58.66 332.00 58.95 C 328.42 67.83 326.26 77.29 321.61 85.71 C 319.45 89.18 316.79 92.67 312.91 94.30 C 309.29 95.79 305.28 95.23 301.49 95.03 C 305.60 93.27 310.23 91.75 312.83 87.82 C 318.20 80.18 321.29 71.27 324.47 62.57 Z" />
<path fill="#000000" d=" M 80.76 66.82 C 83.54 65.85 86.44 66.36 89.01 67.69 C 88.30 69.16 87.59 70.64 86.80 72.08 C 82.96 74.40 77.83 76.89 73.61 74.05 C 72.20 71.61 70.57 69.00 67.38 68.86 C 68.03 68.45 68.68 68.05 69.33 67.66 C 73.16 68.11 77.04 67.84 80.76 66.82 Z" />
<path fill="#c0fb1f" d=" M 174.84 75.61 C 178.20 73.75 180.01 69.60 183.58 68.32 C 184.54 70.06 185.20 71.94 186.15 73.69 C 188.52 72.96 190.84 72.09 193.26 71.50 C 192.28 78.62 190.22 86.51 184.02 90.88 C 178.08 94.72 170.58 93.62 164.07 92.08 C 158.17 90.45 152.14 87.65 148.40 82.61 C 146.37 79.94 146.32 76.50 146.33 73.29 C 147.37 72.64 148.41 71.98 149.45 71.33 C 151.18 72.55 152.83 74.06 154.97 74.50 C 157.25 73.41 159.20 71.78 161.22 70.29 C 161.86 71.73 162.49 73.17 163.12 74.62 C 164.10 79.11 169.19 80.49 173.21 80.25 C 175.45 79.70 175.92 77.43 174.84 75.61 Z" />
<path fill="#c0fb1f" d=" M 19.89 73.18 C 21.59 72.00 23.24 70.75 25.10 69.85 C 26.97 69.99 27.22 72.16 28.13 73.41 C 29.41 73.01 30.68 72.60 31.97 72.21 C 34.36 72.84 36.76 72.44 38.98 71.43 C 39.49 72.36 39.99 73.29 40.50 74.22 C 42.45 73.65 44.31 72.83 46.05 71.78 C 47.15 72.50 48.24 73.22 49.33 73.95 C 43.21 77.77 35.80 75.54 29.30 77.82 C 29.67 82.12 32.56 86.51 31.14 90.75 C 26.97 94.95 20.08 93.76 15.05 91.96 C 11.98 86.68 12.21 80.11 11.26 74.20 C 12.84 73.12 14.42 72.04 16.00 70.96 C 17.29 71.70 18.59 72.44 19.89 73.18 Z" />
<path fill="#c0fb1f" d=" M 86.80 72.08 C 88.16 71.33 89.54 70.62 90.91 69.91 C 91.83 71.59 92.74 73.27 93.65 74.96 C 96.28 73.75 98.85 72.43 101.37 71.01 C 102.60 72.59 104.01 74.03 105.84 74.92 C 104.57 82.53 99.54 89.77 91.86 91.90 C 83.93 93.96 75.22 93.40 67.65 90.23 C 63.12 88.22 58.58 84.95 56.98 80.05 C 56.00 76.67 57.77 73.44 59.41 70.61 C 61.25 72.00 63.09 73.39 64.91 74.80 C 66.31 73.78 67.71 72.76 69.11 71.75 C 70.61 72.51 72.11 73.27 73.61 74.05 C 77.83 76.89 82.96 74.40 86.80 72.08 Z" />
<path fill="#c0fb1f" d=" M 134.49 75.20 C 136.97 73.67 139.05 71.62 140.98 69.45 C 142.32 71.34 143.83 73.11 145.59 74.63 C 144.78 79.72 145.04 86.09 140.50 89.53 C 135.87 93.13 129.65 93.28 124.04 93.15 C 119.12 92.86 113.42 92.08 110.27 87.82 C 106.84 83.38 106.92 77.35 108.54 72.23 C 110.78 71.13 113.27 71.03 115.71 71.01 C 115.85 71.79 116.14 73.34 116.28 74.11 C 118.13 74.13 119.97 74.01 121.78 73.59 L 121.85 73.58 C 121.70 76.06 121.26 79.35 124.00 80.61 C 128.02 80.92 132.27 79.01 134.23 75.38 L 134.49 75.20 Z" />
<path fill="#c0fb1f" d=" M 250.35 73.29 C 251.58 72.25 252.75 71.13 254.09 70.21 C 255.69 70.61 256.28 72.39 257.33 73.48 C 260.34 72.81 263.87 70.42 266.45 73.25 C 269.60 76.08 273.58 78.65 278.00 78.19 C 280.99 77.71 282.27 74.57 283.69 72.27 C 288.69 71.38 293.83 70.61 298.92 70.62 C 301.45 71.97 299.90 75.13 299.17 77.13 C 296.35 83.40 291.78 89.62 285.11 92.06 C 275.63 94.12 264.88 92.14 257.69 85.33 C 254.11 82.13 251.99 77.71 250.35 73.29 Z" />
<path fill="#69f029" d=" M 115.71 71.01 C 117.87 71.49 120.34 71.62 121.78 73.59 C 119.97 74.01 118.13 74.13 116.28 74.11 C 116.14 73.34 115.85 71.79 115.71 71.01 Z" />
<path fill="#c0fb1f" d=" M 202.90 74.27 C 205.91 72.40 209.37 71.54 212.80 70.80 C 213.83 72.02 214.89 73.23 215.90 74.48 C 219.19 78.71 218.23 85.03 215.24 89.16 C 212.22 93.30 205.39 93.80 201.92 89.95 C 197.87 85.76 196.42 79.86 194.96 74.39 C 196.66 73.50 198.36 72.60 200.06 71.70 C 201.00 72.56 201.95 73.41 202.90 74.27 Z" />
<path fill="#c0fb1f" d=" M 233.56 81.33 C 231.78 78.38 232.12 74.79 232.55 71.52 C 234.97 74.60 238.19 72.05 241.06 71.17 C 242.65 72.10 244.00 73.36 245.59 74.28 C 247.17 74.79 248.79 73.90 250.25 73.37 C 249.64 78.32 248.02 84.16 242.87 86.15 C 238.95 87.96 235.36 84.50 233.56 81.33 Z" />
<path fill="#ac9300" d=" M 54.26 72.22 C 54.80 72.71 54.80 72.71 54.26 72.22 Z" />
<path fill="#000000" d=" M 163.12 74.62 C 164.59 73.42 165.90 71.47 168.05 71.64 C 170.89 71.52 172.88 73.91 174.84 75.61 C 175.92 77.43 175.45 79.70 173.21 80.25 C 169.19 80.49 164.10 79.11 163.12 74.62 Z" />
<path fill="#ac9300" d=" M 220.41 79.27 C 221.81 77.49 223.58 76.03 225.16 74.41 C 224.87 78.22 224.77 82.04 224.79 85.87 C 223.02 85.80 221.24 85.66 219.49 85.41 C 219.80 83.37 219.98 81.30 220.41 79.27 Z" />
<path fill="#dfbe01" d=" M 274.43 75.18 C 275.15 74.32 277.52 74.45 277.45 75.83 C 276.74 76.75 274.32 76.58 274.43 75.18 Z" />
<path fill="#ac9300" d=" M 123.89 77.13 C 124.40 75.87 126.73 75.60 127.27 76.97 C 127.55 79.14 123.51 79.48 123.89 77.13 Z" />
<path fill="#ac9300" d=" M 42.96 97.23 C 42.11 92.43 45.49 88.66 49.19 86.21 C 49.83 87.40 50.46 88.59 51.09 89.79 C 47.94 91.76 45.27 94.35 42.96 97.23 Z" />
</svg>
