<?xml version="1.0" encoding="UTF-8" ?>
<!DOCTYPE svg PUBLIC "-//W3C//DTD SVG 1.1//EN" "http://www.w3.org/Graphics/SVG/1.1/DTD/svg11.dtd">
<svg width="600pt" height="142pt" viewBox="0 0 600 142" version="1.1" xmlns="http://www.w3.org/2000/svg">
<path fill="#ffffff" d=" M 0.00 0.00 L 600.00 0.00 L 600.00 139.44 C 593.27 129.63 586.29 119.96 579.94 109.90 C 587.34 106.41 594.45 100.92 596.95 92.78 C 599.86 82.69 599.04 70.50 591.63 62.47 C 585.25 55.34 575.30 52.60 565.99 52.73 C 552.07 52.86 538.13 52.57 524.21 52.88 C 524.44 82.45 523.94 112.03 524.46 141.59 C 530.98 141.38 537.50 141.61 544.02 141.44 C 543.99 131.95 543.99 122.47 544.02 112.99 C 548.97 113.10 553.94 112.77 558.89 113.14 C 565.74 122.12 571.32 132.12 578.10 141.20 C 585.33 141.87 592.71 141.45 600.00 141.35 L 600.00 142.00 L 472.94 142.00 C 473.62 139.82 475.21 137.42 473.99 135.14 C 472.24 132.26 469.38 130.30 466.99 127.99 C 443.94 106.70 420.88 85.42 397.83 64.13 C 388.92 56.12 380.43 47.64 371.27 39.94 C 402.52 74.05 434.06 107.90 465.31 142.00 L 451.08 142.00 C 452.07 140.58 452.74 138.75 451.94 137.07 C 450.40 134.97 448.24 133.43 446.38 131.63 C 425.61 112.45 404.84 93.26 384.04 74.12 C 385.81 77.21 388.62 79.46 390.95 82.09 C 409.35 102.07 427.83 122.00 446.21 142.00 L 0.00 142.00 L 0.00 0.00 Z" />
<path fill="#de4f4f" d=" M 359.94 1.25 C 378.61 17.83 396.42 35.36 414.72 52.34 C 440.11 76.24 465.53 100.11 490.89 124.04 C 494.13 126.93 492.27 133.03 487.96 133.64 C 484.40 134.40 482.06 131.28 480.02 128.94 C 440.24 86.76 400.62 44.41 360.74 2.34 C 360.54 2.07 360.14 1.53 359.94 1.25 Z" />
<path fill="#de4f4f" d=" M 398.23 13.03 C 400.71 14.32 402.47 16.56 404.54 18.37 C 435.78 47.14 466.93 76.00 498.16 104.79 C 499.87 106.51 502.33 108.26 501.78 111.05 C 501.94 116.09 494.65 118.22 491.80 114.18 C 460.51 80.56 429.52 46.66 398.23 13.03 Z" />
<path fill="#de4f4f" d=" M 432.96 25.35 C 435.44 26.74 437.55 28.67 439.54 30.70 C 460.53 50.35 481.76 69.74 502.76 89.38 C 505.00 90.96 504.74 95.02 502.01 95.88 C 500.33 96.74 498.45 96.03 497.33 94.66 C 475.84 71.59 454.59 48.26 432.96 25.35 Z" />
<path fill="#de4f4f" d=" M 466.10 39.29 C 476.58 49.37 487.46 59.03 498.10 68.93 C 499.34 70.09 498.88 72.37 497.02 72.54 C 495.44 72.14 494.44 70.75 493.32 69.68 C 485.90 61.43 478.29 53.36 470.87 45.10 C 469.22 43.22 467.17 41.62 466.10 39.29 Z" />
<path fill="#de4f4f" d=" M 371.27 39.94 C 380.43 47.64 388.92 56.12 397.83 64.13 C 420.88 85.42 443.94 106.70 466.99 127.99 C 469.38 130.30 472.24 132.26 473.99 135.14 C 475.21 137.42 473.62 139.82 472.94 142.00 L 465.31 142.00 C 434.06 107.90 402.52 74.05 371.27 39.94 Z" />
<path fill="#27272b" d=" M 0.79 52.82 C 7.89 52.82 15.03 52.49 22.10 52.95 C 30.06 65.00 37.40 77.50 45.15 89.71 C 53.16 77.71 60.34 65.15 68.23 53.07 C 75.33 52.43 82.64 52.71 89.80 52.96 C 89.70 82.31 89.75 111.67 89.78 141.03 C 83.28 141.51 76.72 141.39 70.22 141.01 C 70.19 122.23 70.44 103.45 70.09 84.68 C 61.17 96.62 53.83 109.73 45.02 121.77 C 38.08 111.43 31.30 100.98 24.41 90.60 C 23.15 88.59 21.89 86.55 20.26 84.81 C 20.17 103.60 20.37 122.39 20.17 141.18 C 13.76 141.36 7.33 141.38 0.92 141.11 C 0.16 121.43 0.96 101.70 0.58 82.00 C 0.91 72.28 0.39 62.54 0.79 52.82 Z" />
<path fill="#27272b" d=" M 113.78 52.78 C 136.12 52.84 158.48 52.50 180.81 52.96 C 180.71 58.67 180.73 64.39 180.79 70.10 C 164.95 70.45 149.10 70.14 133.25 70.26 C 133.22 76.14 133.32 82.02 133.18 87.91 C 147.12 88.13 161.06 87.93 175.00 88.01 C 174.91 93.88 175.20 99.75 174.82 105.62 C 161.17 105.36 147.50 105.54 133.84 105.52 L 133.30 106.10 C 133.15 111.98 133.30 117.87 133.25 123.75 C 149.23 123.77 165.21 123.72 181.20 123.77 C 181.29 129.57 181.28 135.37 181.20 141.17 C 158.74 141.31 136.28 141.38 113.83 141.11 C 113.67 111.67 113.77 82.22 113.78 52.78 Z" />
<path fill="#27272b" d=" M 205.02 52.77 C 229.49 52.74 253.97 52.74 278.44 52.77 C 278.53 58.55 278.54 64.34 278.48 70.13 L 277.96 70.70 C 269.11 71.10 260.18 70.17 251.39 71.16 C 251.59 94.45 251.55 117.75 251.41 141.03 C 244.90 141.42 238.36 141.32 231.84 141.16 C 231.66 117.75 231.76 94.32 231.79 70.91 C 222.90 70.58 214.00 70.77 205.10 70.82 C 204.89 64.80 205.03 58.78 205.02 52.77 Z" />
<path fill="#27272b" d=" M 302.80 52.77 C 324.92 52.78 347.05 52.65 369.17 52.83 C 370.04 58.39 369.14 64.26 369.59 69.93 C 353.84 70.68 338.02 70.02 322.24 70.26 C 322.23 76.15 322.31 82.03 322.18 87.91 C 336.12 88.12 350.06 87.93 364.00 88.01 C 363.89 93.88 364.25 99.77 363.78 105.63 C 350.15 105.35 336.51 105.54 322.88 105.53 L 322.30 106.01 C 322.15 111.92 322.29 117.84 322.26 123.75 C 338.25 123.78 354.23 123.69 370.22 123.80 C 370.23 129.55 370.34 135.31 370.16 141.07 C 347.72 141.57 325.26 141.09 302.81 141.26 C 302.71 111.76 302.72 82.27 302.80 52.77 Z" />
<path fill="#27272b" d=" M 524.21 52.88 C 538.13 52.57 552.07 52.86 565.99 52.73 C 575.30 52.60 585.25 55.34 591.63 62.47 C 599.04 70.50 599.86 82.69 596.95 92.78 C 594.45 100.92 587.34 106.41 579.94 109.90 C 586.29 119.96 593.27 129.63 600.00 139.44 L 600.00 141.35 C 592.71 141.45 585.33 141.87 578.10 141.20 C 571.32 132.12 565.74 122.12 558.89 113.14 C 553.94 112.77 548.97 113.10 544.02 112.99 C 543.99 122.47 543.99 131.95 544.02 141.44 C 537.50 141.61 530.98 141.38 524.46 141.59 C 523.94 112.03 524.44 82.45 524.21 52.88 Z" />
<path fill="#ffffff" d=" M 543.99 70.55 C 550.67 70.45 557.36 70.51 564.05 70.49 C 568.32 70.57 573.02 71.66 575.90 75.06 C 578.98 78.91 579.26 84.59 577.17 88.97 C 575.12 93.15 570.44 95.29 565.97 95.53 C 558.70 96.05 551.39 95.54 544.11 95.83 C 543.85 87.40 544.08 78.97 543.99 70.55 Z" />
<path fill="#de4f4f" d=" M 390.95 82.09 C 388.62 79.46 385.81 77.21 384.04 74.12 C 404.84 93.26 425.61 112.45 446.38 131.63 C 448.24 133.43 450.40 134.97 451.94 137.07 C 452.74 138.75 452.07 140.58 451.08 142.00 L 446.21 142.00 C 427.83 122.00 409.35 102.07 390.95 82.09 Z" />
<path fill="#de4f4f" d=" M 397.14 104.10 C 399.35 104.94 400.76 106.98 402.50 108.48 C 411.48 116.83 420.56 125.07 429.55 133.40 C 431.18 135.44 427.87 137.79 426.41 135.81 C 416.50 125.39 407.01 114.57 397.14 104.10 Z" />
</svg>
