<?xml version="1.0" encoding="UTF-8" ?>
<!DOCTYPE svg PUBLIC "-//W3C//DTD SVG 1.1//EN" "http://www.w3.org/Graphics/SVG/1.1/DTD/svg11.dtd">
<svg width="284pt" height="243pt" viewBox="0 0 284 243" version="1.1" xmlns="http://www.w3.org/2000/svg">
<path fill="#ffffff" d=" M 0.00 0.00 L 93.68 0.00 C 81.96 4.62 70.56 10.02 58.96 14.94 C 54.52 17.04 49.42 18.28 45.97 22.00 C 36.60 32.27 28.08 43.35 17.88 52.85 C 15.85 54.99 13.17 57.16 12.82 60.27 C 13.54 67.36 17.33 73.76 22.26 78.76 C 30.26 86.80 37.28 95.72 44.59 104.38 C 60.56 124.82 75.97 145.70 91.47 166.50 C 98.84 177.10 107.27 186.93 114.22 197.83 C 117.26 202.50 121.80 206.44 123.13 212.03 C 122.70 216.86 118.26 220.80 119.14 225.91 C 119.89 232.71 126.40 236.97 132.62 238.22 C 139.87 239.57 147.55 239.80 154.64 237.49 C 159.98 235.58 165.12 231.02 165.30 224.98 C 165.61 219.87 161.31 215.95 160.83 211.07 C 162.17 207.08 165.10 203.95 167.52 200.60 C 184.47 177.88 201.56 155.26 218.50 132.54 C 228.19 118.73 238.96 105.74 249.70 92.76 C 253.96 87.69 258.54 82.92 263.18 78.21 C 268.10 73.46 270.41 66.68 271.51 60.10 C 270.90 57.07 268.21 54.99 266.23 52.80 C 256.40 42.92 247.92 31.80 238.38 21.65 C 233.35 16.98 226.29 15.77 220.35 12.67 C 210.81 8.40 201.19 4.32 191.68 0.00 L 284.00 0.00 L 284.00 243.00 L 0.00 243.00 L 0.00 0.00 Z" />
<path fill="#eeeeee" d=" M 93.68 0.00 L 191.68 0.00 C 201.19 4.32 210.81 8.40 220.35 12.67 C 226.29 15.77 233.35 16.98 238.38 21.65 C 247.92 31.80 256.40 42.92 266.23 52.80 C 268.21 54.99 270.90 57.07 271.51 60.10 C 270.41 66.68 268.10 73.46 263.18 78.21 C 258.54 82.92 253.96 87.69 249.70 92.76 C 238.96 105.74 228.19 118.73 218.50 132.54 C 201.56 155.26 184.47 177.88 167.52 200.60 C 165.10 203.95 162.17 207.08 160.83 211.07 C 161.31 215.95 165.61 219.87 165.30 224.98 C 165.12 231.02 159.98 235.58 154.64 237.49 C 147.55 239.80 139.87 239.57 132.62 238.22 C 126.40 236.97 119.89 232.71 119.14 225.91 C 118.26 220.80 122.70 216.86 123.13 212.03 C 121.80 206.44 117.26 202.50 114.22 197.83 C 107.27 186.93 98.84 177.10 91.47 166.50 C 75.97 145.70 60.56 124.82 44.59 104.38 C 37.28 95.72 30.26 86.80 22.26 78.76 C 17.33 73.76 13.54 67.36 12.82 60.27 C 13.17 57.16 15.85 54.99 17.88 52.85 C 28.08 43.35 36.60 32.27 45.97 22.00 C 49.42 18.28 54.52 17.04 58.96 14.94 C 70.56 10.02 81.96 4.62 93.68 0.00 Z" />
<path fill="#fffeed" d=" M 91.52 3.47 C 94.11 1.96 96.91 0.50 99.99 0.56 C 116.64 0.95 133.30 0.63 149.95 0.69 C 161.65 0.62 173.36 0.89 185.05 0.40 C 188.89 0.78 192.24 3.04 195.55 4.87 C 191.40 5.54 187.20 5.70 183.01 5.54 C 176.66 5.27 170.40 6.94 164.05 6.50 C 146.77 4.59 129.34 6.14 112.00 5.31 C 105.20 4.42 98.32 4.38 91.52 3.47 Z" />
<path fill="#fff5bc" d=" M 80.08 7.75 C 83.77 6.10 87.41 3.77 91.52 3.47 C 98.32 4.38 105.20 4.42 112.00 5.31 C 129.34 6.14 146.77 4.59 164.05 6.50 C 170.40 6.94 176.66 5.27 183.01 5.54 C 187.20 5.70 191.40 5.54 195.55 4.87 C 199.97 5.44 204.08 7.66 208.05 9.65 C 202.02 9.20 196.07 10.63 190.05 10.48 C 184.22 10.38 178.47 11.59 172.65 11.50 C 167.07 11.45 161.56 13.08 155.98 12.32 C 144.32 10.81 132.54 11.94 120.84 11.40 C 107.27 10.07 93.72 7.77 80.08 7.75 Z" />
<path fill="#ffe087" d=" M 70.93 11.72 C 73.96 10.36 76.96 8.92 80.08 7.75 C 93.72 7.77 107.27 10.07 120.84 11.40 C 132.54 11.94 144.32 10.81 155.98 12.32 C 161.56 13.08 167.07 11.45 172.65 11.50 C 178.47 11.59 184.22 10.38 190.05 10.48 C 196.07 10.63 202.02 9.20 208.05 9.65 C 211.19 10.75 214.22 12.15 217.19 13.64 C 210.77 13.20 204.41 14.40 198.02 14.64 C 180.78 15.69 163.74 18.67 146.55 20.09 C 146.91 21.18 147.28 22.27 147.65 23.36 C 144.30 23.43 140.95 23.33 137.61 23.06 C 137.88 22.03 138.16 21.00 138.44 19.97 C 121.72 17.78 105.17 14.42 88.39 12.64 C 82.60 11.96 76.76 10.98 70.93 11.72 Z" />
<path fill="#fbd059" d=" M 70.93 11.72 C 76.76 10.98 82.60 11.96 88.39 12.64 C 105.17 14.42 121.72 17.78 138.44 19.97 C 138.16 21.00 137.88 22.03 137.61 23.06 C 140.95 23.33 144.30 23.43 147.65 23.36 C 147.28 22.27 146.91 21.18 146.55 20.09 C 163.74 18.67 180.78 15.69 198.02 14.64 C 204.41 14.40 210.77 13.20 217.19 13.64 C 219.35 14.32 221.38 15.35 223.36 16.43 C 215.95 17.63 208.40 17.46 201.01 18.86 C 187.78 21.23 174.39 22.62 161.03 23.98 C 157.97 24.29 156.37 27.99 153.03 27.42 C 144.51 27.09 135.99 26.42 127.45 26.35 C 128.64 25.64 129.82 24.90 130.99 24.16 C 116.60 22.18 102.23 20.04 87.99 17.14 C 81.29 15.67 74.28 15.81 67.78 13.41 C 68.57 12.99 70.14 12.14 70.93 11.72 Z" />
<path fill="#f1ba30" d=" M 54.21 19.08 C 58.69 17.12 63.13 14.90 67.78 13.41 C 74.28 15.81 81.29 15.67 87.99 17.14 C 102.23 20.04 116.60 22.18 130.99 24.16 C 129.82 24.90 128.64 25.64 127.45 26.35 C 125.44 27.01 123.42 27.66 121.47 28.48 C 111.46 26.23 101.15 25.89 90.98 24.72 C 78.58 23.91 66.41 21.28 54.21 19.08 Z" />
<path fill="#fabd31" d=" M 201.01 18.86 C 208.40 17.46 215.95 17.63 223.36 16.43 C 225.81 17.17 228.10 18.33 230.45 19.33 C 227.03 20.46 223.54 21.43 219.97 21.96 C 207.92 23.85 195.81 25.44 183.64 26.39 C 176.92 26.63 170.17 26.88 163.55 28.17 C 165.70 29.50 167.92 30.73 170.23 31.77 C 172.14 32.64 174.06 33.50 176.01 34.30 C 171.42 35.82 166.65 34.45 161.97 34.51 C 151.63 34.46 141.29 34.36 130.96 34.46 C 125.19 34.42 119.23 34.42 113.77 32.29 C 116.34 31.03 118.88 29.69 121.47 28.48 C 123.42 27.66 125.44 27.01 127.45 26.35 C 135.99 26.42 144.51 27.09 153.03 27.42 C 156.37 27.99 157.97 24.29 161.03 23.98 C 174.39 22.62 187.78 21.23 201.01 18.86 Z" />
<path fill="#e99316" d=" M 51.17 21.13 C 52.08 20.32 52.90 19.19 54.21 19.08 C 66.41 21.28 78.58 23.91 90.98 24.72 C 101.15 25.89 111.46 26.23 121.47 28.48 C 118.88 29.69 116.34 31.03 113.77 32.29 L 113.02 32.03 C 110.64 31.16 108.14 30.60 105.62 30.37 C 92.78 29.09 80.01 26.93 67.12 26.27 C 61.93 24.65 57.28 20.87 51.80 20.57 L 51.17 21.13 Z" />
<path fill="#eba11b" d=" M 230.45 19.33 C 230.85 19.48 231.64 19.79 232.04 19.94 L 231.66 20.10 C 225.74 22.63 219.92 25.37 213.97 27.82 C 204.65 28.53 195.31 29.03 186.02 30.02 C 180.75 30.64 175.36 30.24 170.23 31.77 C 167.92 30.73 165.70 29.50 163.55 28.17 C 170.17 26.88 176.92 26.63 183.64 26.39 C 195.81 25.44 207.92 23.85 219.97 21.96 C 223.54 21.43 227.03 20.46 230.45 19.33 Z" />
<path fill="#fbcd54" d=" M 51.17 21.13 L 51.80 20.57 C 51.99 21.07 52.36 22.07 52.54 22.57 C 53.58 28.53 54.40 34.53 55.03 40.55 C 54.88 45.87 53.21 50.92 51.81 55.99 C 51.17 64.42 52.30 72.98 50.45 81.33 C 48.37 79.39 46.40 77.33 44.52 75.19 C 45.53 69.84 45.52 64.39 45.52 58.97 C 45.16 55.28 48.56 52.65 48.54 49.05 C 48.93 40.35 47.56 31.48 49.70 22.92 C 50.07 22.47 50.80 21.58 51.17 21.13 Z" />
<path fill="#fffef8" d=" M 51.80 20.57 C 57.28 20.87 61.93 24.65 67.12 26.27 C 72.05 28.45 76.96 30.67 81.93 32.75 C 87.86 34.82 93.24 38.98 99.64 39.34 C 128.30 39.34 156.96 39.33 185.62 39.34 C 191.09 38.85 195.71 35.40 200.79 33.58 C 205.24 31.79 209.56 29.71 213.97 27.82 C 219.92 25.37 225.74 22.63 231.66 20.10 L 232.28 21.91 C 232.10 22.00 231.74 22.19 231.57 22.28 C 217.61 29.03 204.01 36.54 189.87 42.89 L 189.24 43.17 C 187.04 44.33 184.90 45.59 182.67 46.67 C 177.59 49.03 172.36 51.06 167.30 53.49 C 163.76 55.16 160.15 56.70 156.59 58.32 C 151.82 60.48 147.05 62.61 142.28 64.76 C 142.14 64.77 141.86 64.77 141.72 64.77 C 137.04 62.63 132.34 60.53 127.63 58.44 C 125.33 57.39 123.02 56.35 120.72 55.31 C 117.90 54.03 115.07 52.79 112.27 51.51 C 110.67 50.77 109.09 50.01 107.50 49.26 C 103.27 47.36 98.97 45.61 94.89 43.42 C 94.58 43.27 93.98 42.96 93.68 42.80 C 79.98 36.02 66.43 28.94 52.54 22.57 C 52.36 22.07 51.99 21.07 51.80 20.57 Z" />
<path fill="#f7c742" d=" M 231.57 22.28 C 231.74 22.19 232.10 22.00 232.28 21.91 L 233.15 21.32 C 233.78 29.87 233.28 38.46 233.39 47.03 C 233.04 51.04 236.95 53.89 236.47 57.92 C 236.21 64.98 236.60 72.05 237.81 79.02 C 236.87 79.63 235.96 80.26 235.07 80.93 C 232.77 83.08 228.72 85.23 229.77 88.96 C 229.99 90.24 230.25 91.50 230.54 92.77 C 227.76 95.34 224.72 97.62 221.84 100.08 C 221.51 97.07 221.56 94.05 221.84 91.04 C 220.54 92.23 219.24 93.41 217.94 94.59 C 216.63 92.41 215.42 90.17 214.21 87.93 C 216.06 82.11 215.19 75.97 215.31 69.97 C 215.38 62.80 214.94 55.61 215.82 48.47 C 219.79 49.34 223.74 50.29 227.73 51.08 C 229.09 41.49 230.48 31.91 231.57 22.28 Z" />
<path fill="#fdd361" d=" M 233.15 21.32 C 234.56 23.18 236.09 24.95 237.66 26.68 C 237.75 33.15 237.72 39.63 237.64 46.11 C 237.45 50.96 240.78 55.13 240.56 59.98 C 240.48 65.58 240.85 71.17 241.36 76.74 C 240.96 77.00 240.17 77.52 239.77 77.78 C 239.28 78.09 238.30 78.71 237.81 79.02 C 236.60 72.05 236.21 64.98 236.47 57.92 C 236.95 53.89 233.04 51.04 233.39 47.03 C 233.28 38.46 233.78 29.87 233.15 21.32 Z" />
<path fill="#ffdc77" d=" M 39.43 34.52 C 42.84 30.64 46.15 26.68 49.70 22.92 C 47.56 31.48 48.93 40.35 48.54 49.05 C 48.56 52.65 45.16 55.28 45.52 58.97 C 45.52 64.39 45.53 69.84 44.52 75.19 C 46.40 77.33 48.37 79.39 50.45 81.33 C 51.41 82.21 52.38 83.09 53.41 83.88 C 53.36 86.71 53.52 89.53 53.95 92.32 C 50.65 89.25 47.03 86.53 43.71 83.48 C 43.85 81.13 45.30 78.40 43.62 76.31 C 41.62 73.37 38.78 71.14 36.27 68.66 C 37.66 64.64 37.12 60.25 38.40 56.24 C 41.88 49.56 40.87 41.62 39.43 34.52 Z" />
<path fill="#ffe898" d=" M 52.54 22.57 C 66.43 28.94 79.98 36.02 93.68 42.80 C 89.55 43.88 85.39 44.83 81.22 45.72 C 79.37 46.12 77.52 46.51 75.67 46.91 C 74.01 47.26 72.34 47.61 70.68 47.97 C 65.86 48.98 61.14 50.55 56.20 50.84 C 55.77 47.41 55.40 43.98 55.03 40.55 C 54.40 34.53 53.58 28.53 52.54 22.57 Z" />
<path fill="#ffe898" d=" M 189.87 42.89 C 204.01 36.54 217.61 29.03 231.57 22.28 C 230.48 31.91 229.09 41.49 227.73 51.08 C 223.74 50.29 219.79 49.34 215.82 48.47 C 214.41 48.16 212.99 47.86 211.59 47.55 C 207.86 46.75 204.16 45.85 200.45 45.01 C 196.93 44.26 193.44 43.34 189.87 42.89 Z" />
<path fill="#e36710" d=" M 67.12 26.27 C 80.01 26.93 92.78 29.09 105.62 30.37 C 108.14 30.60 110.64 31.16 113.02 32.03 C 110.34 33.39 107.60 34.65 104.94 36.06 C 99.38 34.23 93.64 33.01 87.87 32.11 C 85.86 31.70 83.86 32.24 81.93 32.75 C 76.96 30.67 72.05 28.45 67.12 26.27 Z" />
<path fill="#ffdf83" d=" M 237.66 26.68 C 241.07 30.25 244.12 34.15 247.43 37.81 C 247.65 43.41 246.73 49.16 248.36 54.61 C 249.91 59.46 249.14 64.69 250.72 69.55 C 250.09 69.98 249.48 70.41 248.87 70.85 C 246.26 72.69 243.92 74.86 241.36 76.74 C 240.85 71.17 240.48 65.58 240.56 59.98 C 240.78 55.13 237.45 50.96 237.64 46.11 C 237.72 39.63 237.75 33.15 237.66 26.68 Z" />
<path fill="#e57312" d=" M 186.02 30.02 C 195.31 29.03 204.65 28.53 213.97 27.82 C 209.56 29.71 205.24 31.79 200.79 33.58 C 193.63 32.85 186.44 33.97 179.47 35.58 C 178.33 35.12 177.16 34.74 176.01 34.30 C 174.06 33.50 172.14 32.64 170.23 31.77 C 175.36 30.24 180.75 30.64 186.02 30.02 Z" />
<path fill="#dc470b" d=" M 81.93 32.75 C 83.86 32.24 85.86 31.70 87.87 32.11 C 93.64 33.01 99.38 34.23 104.94 36.06 C 103.13 37.09 101.38 38.20 99.64 39.34 C 93.24 38.98 87.86 34.82 81.93 32.75 Z" />
<path fill="#f88e20" d=" M 113.02 32.03 L 113.77 32.29 C 119.23 34.42 125.19 34.42 130.96 34.46 C 141.29 34.36 151.63 34.46 161.97 34.51 C 166.65 34.45 171.42 35.82 176.01 34.30 C 177.16 34.74 178.33 35.12 179.47 35.58 C 181.61 36.68 183.63 37.99 185.62 39.34 C 156.96 39.33 128.30 39.34 99.64 39.34 C 101.38 38.20 103.13 37.09 104.94 36.06 C 107.60 34.65 110.34 33.39 113.02 32.03 Z" />
<path fill="#de510d" d=" M 179.47 35.58 C 186.44 33.97 193.63 32.85 200.79 33.58 C 195.71 35.40 191.09 38.85 185.62 39.34 C 183.63 37.99 181.61 36.68 179.47 35.58 Z" />
<path fill="#ffe898" d=" M 36.10 38.26 C 36.96 36.82 38.27 35.72 39.43 34.52 C 40.87 41.62 41.88 49.56 38.40 56.24 C 37.12 60.25 37.66 64.64 36.27 68.66 C 35.12 67.33 33.25 66.18 33.27 64.21 C 32.98 60.01 35.03 56.14 35.47 52.02 C 35.94 47.45 35.57 42.83 36.10 38.26 Z" />
<path fill="#fff1b3" d=" M 247.43 37.81 C 250.24 40.85 253.46 43.78 255.41 47.43 C 255.50 52.32 256.47 57.12 256.66 61.99 C 257.21 65.80 253.20 67.60 250.72 69.55 C 249.14 64.69 249.91 59.46 248.36 54.61 C 246.73 49.16 247.65 43.41 247.43 37.81 Z" />
<path fill="#fff2b6" d=" M 27.27 48.08 C 29.98 44.60 32.86 41.25 36.10 38.26 C 35.57 42.83 35.94 47.45 35.47 52.02 C 35.03 56.14 32.98 60.01 33.27 64.21 C 33.25 66.18 35.12 67.33 36.27 68.66 C 38.78 71.14 41.62 73.37 43.62 76.31 C 45.30 78.40 43.85 81.13 43.71 83.48 C 40.02 80.09 36.11 76.97 32.40 73.61 C 32.38 71.34 32.71 69.00 32.11 66.78 C 30.62 64.42 28.28 62.74 26.72 60.42 C 26.53 56.53 27.94 52.65 27.32 48.73 L 27.27 48.08 Z" />
<path fill="#f6c036" d=" M 51.81 55.99 C 53.21 50.92 54.88 45.87 55.03 40.55 C 55.40 43.98 55.77 47.41 56.20 50.84 C 56.76 54.67 57.53 58.47 57.71 62.35 C 55.60 69.95 57.27 77.89 56.08 85.61 C 55.41 85.18 54.07 84.32 53.41 83.88 C 52.38 83.09 51.41 82.21 50.45 81.33 C 52.30 72.98 51.17 64.42 51.81 55.99 Z" />
<path fill="#ee8a1d" d=" M 81.22 45.72 C 85.39 44.83 89.55 43.88 93.68 42.80 C 93.98 42.96 94.58 43.27 94.89 43.42 C 93.16 46.20 91.53 49.04 89.99 51.93 C 87.64 56.20 85.14 60.38 82.81 64.65 C 81.91 58.37 82.54 51.96 81.22 45.72 Z" />
<path fill="#ed871d" d=" M 189.87 42.89 C 193.44 43.34 196.93 44.26 200.45 45.01 C 202.33 50.75 201.43 56.97 200.17 62.75 C 198.40 59.58 196.61 56.44 194.85 53.27 C 193.00 49.89 191.11 46.53 189.24 43.17 L 189.87 42.89 Z" />
<path fill="#fff6bd" d=" M 94.89 43.42 C 98.97 45.61 103.27 47.36 107.50 49.26 C 104.35 53.13 105.96 58.40 105.64 62.96 C 106.09 68.74 104.14 75.23 107.75 80.30 C 107.63 80.36 107.40 80.46 107.28 80.52 C 102.16 82.85 97.05 85.20 91.89 87.47 C 90.88 78.02 91.58 68.50 91.43 59.02 C 91.43 56.58 90.70 54.24 89.99 51.93 C 91.53 49.04 93.16 46.20 94.89 43.42 Z" />
<path fill="#fff7c1" d=" M 182.67 46.67 C 184.90 45.59 187.04 44.33 189.24 43.17 C 191.11 46.53 193.00 49.89 194.85 53.27 C 194.10 56.47 193.60 59.73 193.68 63.03 C 193.84 71.44 193.76 79.86 193.74 88.28 C 190.04 86.60 186.35 84.88 182.64 83.24 C 182.74 71.05 182.70 58.86 182.67 46.67 Z" />
<path fill="#f0a121" d=" M 200.45 45.01 C 204.16 45.85 207.86 46.75 211.59 47.55 C 210.77 49.26 209.72 50.96 209.70 52.92 C 209.31 61.51 210.38 70.16 209.06 78.70 C 206.72 74.49 204.30 70.32 201.97 66.10 C 201.36 64.98 200.77 63.86 200.17 62.75 C 201.43 56.97 202.33 50.75 200.45 45.01 Z" />
<path fill="#f0a121" d=" M 75.67 46.91 C 77.52 46.51 79.37 46.12 81.22 45.72 C 82.54 51.96 81.91 58.37 82.81 64.65 C 82.55 65.12 82.30 65.58 82.05 66.05 C 80.09 69.68 78.00 73.24 76.00 76.84 C 74.55 66.96 75.07 56.85 75.67 46.91 Z" />
<path fill="#f3b429" d=" M 70.68 47.97 C 72.34 47.61 74.01 47.26 75.67 46.91 C 75.07 56.85 74.55 66.96 76.00 76.84 C 74.33 79.88 72.60 82.88 70.93 85.92 C 70.43 81.95 70.42 77.94 70.52 73.95 C 70.73 65.29 70.28 56.62 70.68 47.97 Z" />
<path fill="#ffeda7" d=" M 167.30 53.49 C 172.36 51.06 177.59 49.03 182.67 46.67 C 182.70 58.86 182.74 71.05 182.64 83.24 C 178.44 81.38 174.30 79.39 170.11 77.51 C 168.51 76.79 166.92 76.08 165.32 75.37 C 166.27 73.70 167.57 72.06 167.47 70.03 C 167.70 64.52 167.48 59.00 167.30 53.49 Z" />
<path fill="#f7c53d" d=" M 56.20 50.84 C 61.14 50.55 65.86 48.98 70.68 47.97 C 70.28 56.62 70.73 65.29 70.52 73.95 C 70.42 77.94 70.43 81.95 70.93 85.92 C 69.37 88.87 67.71 91.78 65.87 94.57 C 64.54 93.25 63.23 91.91 61.81 90.69 C 60.87 81.19 58.97 71.81 57.71 62.35 C 57.53 58.47 56.76 54.67 56.20 50.84 Z" />
<path fill="#f4b72b" d=" M 211.59 47.55 C 212.99 47.86 214.41 48.16 215.82 48.47 C 214.94 55.61 215.38 62.80 215.31 69.97 C 215.19 75.97 216.06 82.11 214.21 87.93 C 212.49 84.86 210.76 81.79 209.06 78.70 C 210.38 70.16 209.31 61.51 209.70 52.92 C 209.72 50.96 210.77 49.26 211.59 47.55 Z" />
<path fill="#fffdd7" d=" M 256.66 61.99 C 256.47 57.12 255.50 52.32 255.41 47.43 C 258.66 50.44 263.45 54.03 262.37 59.07 C 261.39 62.07 258.85 64.52 258.95 67.84 C 255.99 70.46 252.95 72.99 250.02 75.63 C 249.63 74.04 249.25 72.44 248.87 70.85 C 249.48 70.41 250.09 69.98 250.72 69.55 C 253.20 67.60 257.21 65.80 256.66 61.99 Z" />
<path fill="#fffee5" d=" M 25.37 50.91 C 26.02 50.17 26.67 49.45 27.32 48.73 C 27.94 52.65 26.53 56.53 26.72 60.42 C 28.28 62.74 30.62 64.42 32.11 66.78 C 32.71 69.00 32.38 71.34 32.40 73.61 C 27.64 68.81 21.34 65.45 17.48 59.86 C 18.25 58.96 19.03 58.06 19.81 57.17 C 21.69 55.10 23.56 53.03 25.37 50.91 Z" />
<path fill="#ffeda9" d=" M 105.64 62.96 C 105.96 58.40 104.35 53.13 107.50 49.26 C 109.09 50.01 110.67 50.77 112.27 51.51 C 111.91 60.44 112.08 69.37 112.24 78.30 C 110.75 78.97 109.25 79.63 107.75 80.30 C 104.14 75.23 106.09 68.74 105.64 62.96 Z" />
<path fill="#ed871d" d=" M 19.81 57.17 C 21.33 54.81 23.25 52.73 25.37 50.91 C 23.56 53.03 21.69 55.10 19.81 57.17 Z" />
<path fill="#ffe899" d=" M 112.27 51.51 C 115.07 52.79 117.90 54.03 120.72 55.31 C 119.58 61.63 119.59 68.11 120.90 74.41 C 118.01 75.70 115.13 77.01 112.24 78.30 C 112.08 69.37 111.91 60.44 112.27 51.51 Z" />
<path fill="#fffdd7" d=" M 82.81 64.65 C 85.14 60.38 87.64 56.20 89.99 51.93 C 90.70 54.24 91.43 56.58 91.43 59.02 C 91.58 68.50 90.88 78.02 91.89 87.47 C 89.13 88.70 86.38 89.94 83.62 91.17 C 81.63 82.87 84.22 74.30 82.05 66.05 C 82.30 65.58 82.55 65.12 82.81 64.65 Z" />
<path fill="#ffe28c" d=" M 156.59 58.32 C 160.15 56.70 163.76 55.16 167.30 53.49 C 167.48 59.00 167.70 64.52 167.47 70.03 C 167.57 72.06 166.27 73.70 165.32 75.37 C 162.50 74.11 159.68 72.83 156.86 71.59 C 156.71 71.52 156.41 71.39 156.27 71.33 C 158.74 67.39 159.02 62.36 156.59 58.32 Z" />
<path fill="#fffdd6" d=" M 193.68 63.03 C 193.60 59.73 194.10 56.47 194.85 53.27 C 196.61 56.44 198.40 59.58 200.17 62.75 C 200.77 63.86 201.36 64.98 201.97 66.10 C 200.33 74.46 201.83 83.00 200.76 91.42 C 198.42 90.39 196.07 89.34 193.74 88.28 C 193.76 79.86 193.84 71.44 193.68 63.03 Z" />
<path fill="#ffe188" d=" M 120.90 74.41 C 119.59 68.11 119.58 61.63 120.72 55.31 C 123.02 56.35 125.33 57.39 127.63 58.44 C 126.76 62.69 126.94 67.05 127.79 71.29 C 126.84 71.71 125.90 72.14 124.96 72.57 C 123.61 73.19 122.25 73.80 120.90 74.41 Z" />
<path fill="#f0ac22" d=" M 227.81 56.53 C 229.60 65.86 227.62 75.52 229.12 84.93 C 227.25 87.06 225.15 88.97 222.80 90.55 C 222.89 85.30 224.08 80.17 224.76 74.99 C 225.76 68.84 226.25 62.58 227.81 56.53 Z" />
<path fill="#eba30c" d=" M 16.83 58.71 L 17.48 59.86 C 21.34 65.45 27.64 68.81 32.40 73.61 C 36.11 76.97 40.02 80.09 43.71 83.48 C 47.03 86.53 50.65 89.25 53.95 92.32 C 55.08 93.35 56.23 94.36 57.37 95.38 C 59.22 97.00 61.09 98.59 62.91 100.24 C 63.11 100.43 63.53 100.81 63.74 101.00 C 64.16 102.02 64.58 103.05 65.01 104.08 C 63.69 102.26 62.13 100.58 60.12 99.52 C 55.04 96.75 50.88 92.67 46.65 88.81 C 41.57 83.81 35.94 79.42 30.43 74.91 C 30.20 75.48 29.73 76.62 29.49 77.18 C 25.75 72.65 22.50 67.74 18.87 63.12 C 17.80 61.86 17.37 60.24 16.83 58.71 Z" />
<path fill="#ffdc78" d=" M 127.79 71.29 C 126.94 67.05 126.76 62.69 127.63 58.44 C 132.34 60.53 137.04 62.63 141.72 64.77 C 140.43 65.36 139.17 65.99 137.90 66.62 C 134.58 68.28 131.18 69.78 127.79 71.29 Z" />
<path fill="#ffdc78" d=" M 142.28 64.76 C 147.05 62.61 151.82 60.48 156.59 58.32 C 159.02 62.36 158.74 67.39 156.27 71.33 C 151.52 69.32 146.94 66.95 142.28 64.76 Z" />
<path fill="#eba30c" d=" M 258.95 67.84 C 261.47 65.62 264.01 63.43 266.65 61.34 C 264.79 63.69 263.16 66.24 261.14 68.45 C 253.56 75.32 245.64 81.82 237.60 88.15 L 237.87 86.37 C 238.84 85.43 239.82 84.51 240.83 83.61 C 243.87 80.93 246.98 78.33 250.02 75.63 C 252.95 72.99 255.99 70.46 258.95 67.84 Z" />
<path fill="#f0a820" d=" M 56.08 85.61 C 57.27 77.89 55.60 69.95 57.71 62.35 C 58.97 71.81 60.87 81.19 61.81 90.69 C 60.68 89.74 59.53 88.81 58.45 87.81 C 57.66 87.07 56.89 86.32 56.08 85.61 Z" />
<path fill="#f1a621" d=" M 137.90 66.62 C 139.17 65.99 140.43 65.36 141.72 64.77 C 141.86 64.77 142.14 64.77 142.28 64.76 C 146.94 66.95 151.52 69.32 156.27 71.33 C 156.41 71.39 156.71 71.52 156.86 71.59 C 156.06 78.51 155.97 85.80 159.31 92.14 C 158.97 92.78 158.62 93.42 158.29 94.06 C 154.37 93.95 150.45 94.01 146.54 94.11 C 145.98 91.01 145.07 87.99 143.92 85.05 C 141.42 79.43 143.26 73.22 142.53 67.31 C 140.99 67.08 139.44 66.85 137.90 66.62 Z" />
<path fill="#fffeec" d=" M 76.00 76.84 C 78.00 73.24 80.09 69.68 82.05 66.05 C 84.22 74.30 81.63 82.87 83.62 91.17 C 78.30 93.56 73.06 96.11 67.72 98.45 C 66.13 99.10 64.52 99.68 62.91 100.24 C 63.78 98.30 64.72 96.37 65.87 94.57 C 67.71 91.78 69.37 88.87 70.93 85.92 C 72.60 82.88 74.33 79.88 76.00 76.84 Z" />
<path fill="#ef981f" d=" M 127.79 71.29 C 131.18 69.78 134.58 68.28 137.90 66.62 C 139.44 66.85 140.99 67.08 142.53 67.31 C 143.26 73.22 141.42 79.43 143.92 85.05 C 145.07 87.99 145.98 91.01 146.54 94.11 C 144.47 94.16 142.40 94.21 140.33 94.25 C 137.30 94.18 134.29 94.00 131.26 94.01 C 131.45 93.67 131.83 92.99 132.02 92.66 C 128.74 86.76 127.87 80.11 127.70 73.47 C 127.02 73.25 125.65 72.80 124.96 72.57 C 125.90 72.14 126.84 71.71 127.79 71.29 Z" />
<path fill="#fffee8" d=" M 200.76 91.42 C 201.83 83.00 200.33 74.46 201.97 66.10 C 204.30 70.32 206.72 74.49 209.06 78.70 C 210.76 81.79 212.49 84.86 214.21 87.93 C 215.42 90.17 216.63 92.41 217.94 94.59 C 218.93 96.27 220.01 97.92 220.69 99.76 C 219.38 100.17 218.11 99.41 216.93 98.96 C 212.92 97.08 208.97 95.08 204.92 93.28 C 203.53 92.66 202.15 92.04 200.76 91.42 Z" />
<path fill="#da6405" d=" M 237.60 88.15 C 245.64 81.82 253.56 75.32 261.14 68.45 C 255.03 76.64 249.01 84.94 242.60 92.88 C 238.86 95.40 235.58 98.51 232.11 101.38 C 234.12 97.89 235.86 94.22 236.85 90.30 C 237.10 89.58 237.35 88.86 237.60 88.15 Z" />
<path fill="#fff0b0" d=" M 241.36 76.74 C 243.92 74.86 246.26 72.69 248.87 70.85 C 249.25 72.44 249.63 74.04 250.02 75.63 C 246.98 78.33 243.87 80.93 240.83 83.61 C 240.47 81.67 240.12 79.72 239.77 77.78 C 240.17 77.52 240.96 77.00 241.36 76.74 Z" />
<path fill="#f2b529" d=" M 156.86 71.59 C 159.68 72.83 162.50 74.11 165.32 75.37 C 166.92 76.08 168.51 76.79 170.11 77.51 C 169.73 82.99 171.31 88.26 174.17 92.91 C 173.37 93.23 172.57 93.54 171.77 93.85 C 167.81 94.05 163.84 94.18 159.87 94.09 C 159.48 94.08 158.68 94.06 158.29 94.06 C 158.62 93.42 158.97 92.78 159.31 92.14 C 155.97 85.80 156.06 78.51 156.86 71.59 Z" />
<path fill="#ed871c" d=" M 120.90 74.41 C 122.25 73.80 123.61 73.19 124.96 72.57 C 125.65 72.80 127.02 73.25 127.70 73.47 C 127.87 80.11 128.74 86.76 132.02 92.66 C 131.83 92.99 131.45 93.67 131.26 94.01 C 127.26 94.03 123.27 94.21 119.27 94.27 C 117.62 94.19 115.98 94.06 114.33 93.98 C 111.87 89.55 109.76 84.93 107.28 80.52 C 107.40 80.46 107.63 80.36 107.75 80.30 C 109.25 79.63 110.75 78.97 112.24 78.30 C 115.13 77.01 118.01 75.70 120.90 74.41 Z" />
<path fill="#da5f05" d=" M 30.43 74.91 C 35.94 79.42 41.57 83.81 46.65 88.81 C 46.74 92.07 47.90 95.15 49.38 98.02 C 46.95 96.02 44.40 94.11 42.39 91.67 C 40.43 89.47 38.90 86.69 36.04 85.56 L 35.55 85.29 C 33.53 82.59 31.43 79.95 29.49 77.18 C 29.73 76.62 30.20 75.48 30.43 74.91 Z" />
<path fill="#f6c23a" d=" M 170.11 77.51 C 174.30 79.39 178.44 81.38 182.64 83.24 C 186.35 84.88 190.04 86.60 193.74 88.28 C 196.07 89.34 198.42 90.39 200.76 91.42 C 202.15 92.04 203.53 92.66 204.92 93.28 C 201.63 93.60 198.33 93.76 195.02 93.74 C 188.63 93.61 182.26 94.27 175.87 94.05 C 174.50 93.98 173.13 93.91 171.77 93.85 C 172.57 93.54 173.37 93.23 174.17 92.91 C 171.31 88.26 169.73 82.99 170.11 77.51 Z" />
<path fill="#ffe582" d=" M 237.81 79.02 C 238.30 78.71 239.28 78.09 239.77 77.78 C 240.12 79.72 240.47 81.67 240.83 83.61 C 239.82 84.51 238.84 85.43 237.87 86.37 C 237.06 87.08 236.25 87.79 235.44 88.49 C 235.32 85.97 235.20 83.45 235.07 80.93 C 235.96 80.26 236.87 79.63 237.81 79.02 Z" />
<path fill="#e97418" d=" M 91.89 87.47 C 97.05 85.20 102.16 82.85 107.28 80.52 C 109.76 84.93 111.87 89.55 114.33 93.98 C 104.30 93.88 94.25 94.20 84.25 95.02 C 85.16 96.42 86.07 97.82 86.98 99.21 C 80.57 98.82 73.98 100.34 67.72 98.45 C 73.06 96.11 78.30 93.56 83.62 91.17 C 86.38 89.94 89.13 88.70 91.89 87.47 Z" />
<path fill="#ffde5f" d=" M 229.77 88.96 C 228.72 85.23 232.77 83.08 235.07 80.93 C 235.20 83.45 235.32 85.97 235.44 88.49 C 233.80 89.91 232.17 91.34 230.54 92.77 C 230.25 91.50 229.99 90.24 229.77 88.96 Z" />
<path fill="#ffd23d" d=" M 53.41 83.88 C 54.07 84.32 55.41 85.18 56.08 85.61 C 56.89 86.32 57.66 87.07 58.45 87.81 C 58.06 90.33 57.71 92.85 57.37 95.38 C 56.23 94.36 55.08 93.35 53.95 92.32 C 53.52 89.53 53.36 86.71 53.41 83.88 Z" />
<path fill="#ec7e1a" d=" M 36.04 85.56 C 38.90 86.69 40.43 89.47 42.39 91.67 C 44.40 94.11 46.95 96.02 49.38 98.02 C 55.51 103.62 61.61 109.25 67.80 114.79 C 71.08 122.33 76.14 128.90 79.60 136.35 C 83.40 144.47 88.79 151.83 91.63 160.39 C 73.67 136.97 56.36 113.05 38.53 89.52 C 37.56 88.29 36.75 86.94 36.04 85.56 Z" />
<path fill="#ea780d" d=" M 235.44 88.49 C 236.25 87.79 237.06 87.08 237.87 86.37 L 237.60 88.15 C 237.35 88.86 237.10 89.58 236.85 90.30 C 230.75 95.19 225.07 100.58 218.74 105.19 C 219.55 103.71 220.30 102.20 221.19 100.76 C 221.35 100.59 221.68 100.25 221.84 100.08 C 224.72 97.62 227.76 95.34 230.54 92.77 C 232.17 91.34 233.80 89.91 235.44 88.49 Z" />
<path fill="#fbc131" d=" M 58.45 87.81 C 59.53 88.81 60.68 89.74 61.81 90.69 C 63.23 91.91 64.54 93.25 65.87 94.57 C 64.72 96.37 63.78 98.30 62.91 100.24 C 61.09 98.59 59.22 97.00 57.37 95.38 C 57.71 92.85 58.06 90.33 58.45 87.81 Z" />
<path fill="#d03304" d=" M 49.38 98.02 C 47.90 95.15 46.74 92.07 46.65 88.81 C 50.88 92.67 55.04 96.75 60.12 99.52 C 62.13 100.58 63.69 102.26 65.01 104.08 C 65.88 105.40 66.78 106.70 67.69 108.00 C 70.55 112.14 73.09 116.49 75.70 120.79 C 73.00 118.88 70.26 117.01 67.80 114.79 C 61.61 109.25 55.51 103.62 49.38 98.02 Z" />
<path fill="#ffe172" d=" M 217.94 94.59 C 219.24 93.41 220.54 92.23 221.84 91.04 C 221.56 94.05 221.51 97.07 221.84 100.08 C 221.68 100.25 221.35 100.59 221.19 100.76 C 213.55 100.67 205.90 100.56 198.25 100.58 C 180.36 100.64 162.46 100.35 144.57 100.44 C 131.33 99.07 117.99 100.28 104.73 99.28 C 106.12 99.32 107.51 99.36 108.90 99.38 C 117.22 99.52 125.54 99.34 133.86 99.49 C 138.84 99.59 143.82 99.65 148.79 99.58 C 163.63 100.18 178.46 99.46 193.27 98.78 C 192.98 97.86 192.69 96.94 192.41 96.02 C 193.28 95.26 194.15 94.50 195.02 93.74 C 198.33 93.76 201.63 93.60 204.92 93.28 C 208.97 95.08 212.92 97.08 216.93 98.96 C 218.11 99.41 219.38 100.17 220.69 99.76 C 220.01 97.92 218.93 96.27 217.94 94.59 Z" />
<path fill="#d13404" d=" M 218.74 105.19 C 225.07 100.58 230.75 95.19 236.85 90.30 C 235.86 94.22 234.12 97.89 232.11 101.38 C 231.01 102.37 229.92 103.35 228.82 104.34 C 224.57 108.13 220.23 111.84 216.10 115.77 C 213.80 117.84 211.38 119.90 208.40 120.91 C 211.26 116.85 213.57 112.44 216.42 108.38 C 217.18 107.31 217.97 106.25 218.74 105.19 Z" />
<path fill="#ee941e" d=" M 232.11 101.38 C 235.58 98.51 238.86 95.40 242.60 92.88 C 235.77 102.68 228.55 112.27 221.12 121.63 C 220.58 119.07 222.62 116.98 223.84 114.95 C 226.18 111.78 227.88 108.17 228.82 104.34 C 229.92 103.35 231.01 102.37 232.11 101.38 Z" />
<path fill="#f79922" d=" M 84.25 95.02 C 94.25 94.20 104.30 93.88 114.33 93.98 C 115.98 94.06 117.62 94.19 119.27 94.27 C 114.53 94.47 109.78 94.79 105.14 95.81 C 106.38 97.01 107.64 98.20 108.90 99.38 C 107.51 99.36 106.12 99.32 104.73 99.28 C 98.82 99.01 92.90 99.27 86.98 99.21 C 86.07 97.82 85.16 96.42 84.25 95.02 Z" />
<path fill="#f9b328" d=" M 119.27 94.27 C 123.27 94.21 127.26 94.03 131.26 94.01 C 134.29 94.00 137.30 94.18 140.33 94.25 C 137.12 94.58 133.95 95.16 130.77 95.71 C 131.81 96.96 132.84 98.22 133.86 99.49 C 125.54 99.34 117.22 99.52 108.90 99.38 C 107.64 98.20 106.38 97.01 105.14 95.81 C 109.78 94.79 114.53 94.47 119.27 94.27 Z" />
<path fill="#fbc531" d=" M 140.33 94.25 C 142.40 94.21 144.47 94.16 146.54 94.11 C 150.45 94.01 154.37 93.95 158.29 94.06 C 158.68 94.06 159.48 94.08 159.87 94.09 C 159.32 94.81 158.77 95.54 158.22 96.27 C 158.78 97.27 159.34 98.27 159.90 99.27 C 156.20 99.36 152.50 99.51 148.79 99.58 C 143.82 99.65 138.84 99.59 133.86 99.49 C 132.84 98.22 131.81 96.96 130.77 95.71 C 133.95 95.16 137.12 94.58 140.33 94.25 Z" />
<path fill="#ffd442" d=" M 159.87 94.09 C 163.84 94.18 167.81 94.05 171.77 93.85 C 173.13 93.91 174.50 93.98 175.87 94.05 C 175.64 95.55 175.39 97.06 175.16 98.56 C 170.08 99.02 164.99 99.18 159.90 99.27 C 159.34 98.27 158.78 97.27 158.22 96.27 C 158.77 95.54 159.32 94.81 159.87 94.09 Z" />
<path fill="#ffdc57" d=" M 175.87 94.05 C 182.26 94.27 188.63 93.61 195.02 93.74 C 194.15 94.50 193.28 95.26 192.41 96.02 C 192.69 96.94 192.98 97.86 193.27 98.78 C 178.46 99.46 163.63 100.18 148.79 99.58 C 152.50 99.51 156.20 99.36 159.90 99.27 C 164.99 99.18 170.08 99.02 175.16 98.56 C 175.39 97.06 175.64 95.55 175.87 94.05 Z" />
<path fill="#fa9e48" d=" M 62.91 100.24 C 64.52 99.68 66.13 99.10 67.72 98.45 C 73.98 100.34 80.57 98.82 86.98 99.21 C 92.90 99.27 98.82 99.01 104.73 99.28 C 117.99 100.28 131.33 99.07 144.57 100.44 C 141.70 100.68 138.84 100.99 135.97 101.01 C 119.24 101.01 102.50 100.96 85.77 101.03 C 78.43 101.00 71.08 101.04 63.74 101.00 C 63.53 100.81 63.11 100.43 62.91 100.24 Z" />
<path fill="#fcbc2e" d=" M 63.74 101.00 C 71.08 101.04 78.43 101.00 85.77 101.03 C 85.99 102.50 86.21 103.96 86.44 105.43 C 87.97 105.85 89.49 106.28 91.02 106.71 C 84.52 106.90 77.99 106.74 71.53 107.67 C 70.25 107.77 68.97 107.88 67.69 108.00 C 66.78 106.70 65.88 105.40 65.01 104.08 C 64.58 103.05 64.16 102.02 63.74 101.00 Z" />
<path fill="#f9ae26" d=" M 85.77 101.03 C 102.50 100.96 119.24 101.01 135.97 101.01 C 138.84 100.99 141.70 100.68 144.57 100.44 C 162.46 100.35 180.36 100.64 198.25 100.58 C 194.25 101.86 192.18 105.72 189.11 108.28 C 165.74 107.79 142.37 108.18 119.00 107.80 C 109.06 107.75 99.13 107.84 89.19 107.92 C 83.65 107.89 78.11 107.82 72.58 107.66 L 71.53 107.67 C 77.99 106.74 84.52 106.90 91.02 106.71 C 89.49 106.28 87.97 105.85 86.44 105.43 C 86.21 103.96 85.99 102.50 85.77 101.03 Z" />
<path fill="#fbba2e" d=" M 198.25 100.58 C 205.90 100.56 213.55 100.67 221.19 100.76 C 220.30 102.20 219.55 103.71 218.74 105.19 C 217.97 106.25 217.18 107.31 216.42 108.38 C 211.56 107.93 206.68 108.02 201.81 108.32 C 197.58 108.32 193.34 108.27 189.11 108.28 C 192.18 105.72 194.25 101.86 198.25 100.58 Z" />
<path fill="#ec7f1b" d=" M 216.10 115.77 C 220.23 111.84 224.57 108.13 228.82 104.34 C 227.88 108.17 226.18 111.78 223.84 114.95 C 222.62 116.98 220.58 119.07 221.12 121.63 L 221.06 122.07 C 212.15 133.70 203.75 145.72 194.59 157.15 C 195.17 155.31 195.75 153.45 196.70 151.76 C 201.23 143.83 205.56 135.79 209.70 127.65 C 211.93 123.75 214.33 119.92 216.10 115.77 Z" />
<path fill="#ef991e" d=" M 67.69 108.00 C 68.97 107.88 70.25 107.77 71.53 107.67 L 72.58 107.66 C 77.72 116.72 83.26 125.55 88.16 134.74 C 90.86 139.00 92.85 144.32 97.76 146.53 C 97.28 145.16 96.78 143.81 96.25 142.47 C 98.77 142.76 101.23 143.43 103.55 144.48 C 111.04 147.82 119.39 148.89 126.57 153.01 C 126.86 150.11 127.17 147.22 127.47 144.33 C 137.16 144.16 146.84 144.17 156.53 144.29 C 156.81 147.19 157.10 150.10 157.39 153.01 C 166.23 148.25 176.45 147.12 185.35 142.45 C 185.44 143.87 185.53 145.29 185.64 146.72 C 186.95 146.02 188.40 145.42 189.26 144.14 C 192.80 139.47 195.41 134.20 198.34 129.15 C 201.48 123.42 205.45 118.16 208.28 112.24 C 208.83 111.11 209.37 109.96 209.92 108.82 C 207.22 108.63 204.52 108.40 201.81 108.32 C 206.68 108.02 211.56 107.93 216.42 108.38 C 213.57 112.44 211.26 116.85 208.40 120.91 C 201.63 130.60 195.39 140.68 189.54 150.93 C 188.01 153.53 186.38 156.06 184.73 158.58 C 183.65 158.59 182.56 158.60 181.48 158.60 C 179.41 161.50 177.40 164.43 175.30 167.30 C 175.72 164.58 176.26 161.88 176.85 159.20 C 175.46 159.61 174.07 160.04 172.69 160.47 C 171.69 161.87 170.88 163.62 169.09 164.15 C 164.29 166.16 159.30 167.76 154.21 168.83 C 153.98 165.45 153.77 162.06 153.55 158.68 C 145.53 158.72 137.46 158.10 129.47 158.97 C 129.65 162.43 129.84 165.90 130.04 169.36 C 125.16 168.26 120.56 166.24 115.81 164.74 C 111.79 163.96 110.57 158.77 106.11 158.87 C 106.59 161.67 107.17 164.45 107.75 167.23 C 104.92 164.10 102.58 160.60 100.35 157.03 C 100.19 157.76 99.86 159.22 99.69 159.95 C 98.66 158.42 97.64 156.89 96.67 155.33 C 90.23 143.49 82.45 132.45 75.70 120.79 C 73.09 116.49 70.55 112.14 67.69 108.00 Z" />
<path fill="#e56e12" d=" M 72.58 107.66 C 78.11 107.82 83.65 107.89 89.19 107.92 C 92.31 112.08 97.26 113.98 101.74 116.27 C 105.03 117.93 108.73 118.41 112.36 118.63 C 103.69 119.82 94.87 119.89 86.28 121.64 C 89.21 128.77 93.15 135.42 96.25 142.47 C 96.78 143.81 97.28 145.16 97.76 146.53 C 92.85 144.32 90.86 139.00 88.16 134.74 C 83.26 125.55 77.72 116.72 72.58 107.66 Z" />
<path fill="#de5b0f" d=" M 89.19 107.92 C 99.13 107.84 109.06 107.75 119.00 107.80 C 142.37 108.18 165.74 107.79 189.11 108.28 C 193.34 108.27 197.58 108.32 201.81 108.32 C 204.52 108.40 207.22 108.63 209.92 108.82 C 209.37 109.96 208.83 111.11 208.28 112.24 C 204.90 113.74 201.30 114.96 198.47 117.41 C 196.59 118.93 194.75 121.04 192.05 120.60 C 183.33 120.30 174.67 119.01 165.98 118.22 C 154.09 116.16 141.97 115.91 129.95 116.57 C 124.05 116.91 118.26 118.23 112.36 118.63 C 108.73 118.41 105.03 117.93 101.74 116.27 C 97.26 113.98 92.31 112.08 89.19 107.92 Z" />
<path fill="#ec821b" d=" M 198.47 117.41 C 201.30 114.96 204.90 113.74 208.28 112.24 C 205.45 118.16 201.48 123.42 198.34 129.15 C 195.41 134.20 192.80 139.47 189.26 144.14 C 188.40 145.42 186.95 146.02 185.64 146.72 C 185.53 145.29 185.44 143.87 185.35 142.45 C 176.45 147.12 166.23 148.25 157.39 153.01 C 157.10 150.10 156.81 147.19 156.53 144.29 C 146.84 144.17 137.16 144.16 127.47 144.33 C 127.17 147.22 126.86 150.11 126.57 153.01 C 119.39 148.89 111.04 147.82 103.55 144.48 C 101.23 143.43 98.77 142.76 96.25 142.47 C 93.15 135.42 89.21 128.77 86.28 121.64 C 94.87 119.89 103.69 119.82 112.36 118.63 C 118.26 118.23 124.05 116.91 129.95 116.57 C 141.97 115.91 154.09 116.16 165.98 118.22 C 174.67 119.01 183.33 120.30 192.05 120.60 C 194.75 121.04 196.59 118.93 198.47 117.41 Z" />
<path fill="#e66213" d=" M 67.80 114.79 C 70.26 117.01 73.00 118.88 75.70 120.79 C 82.45 132.45 90.23 143.49 96.67 155.33 C 97.48 161.15 99.38 166.74 100.62 172.48 C 97.49 168.56 94.39 164.58 91.63 160.39 C 88.79 151.83 83.40 144.47 79.60 136.35 C 76.14 128.90 71.08 122.33 67.80 114.79 Z" />
<path fill="#e86714" d=" M 208.40 120.91 C 211.38 119.90 213.80 117.84 216.10 115.77 C 214.33 119.92 211.93 123.75 209.70 127.65 C 205.56 135.79 201.23 143.83 196.70 151.76 C 195.75 153.45 195.17 155.31 194.59 157.15 C 191.84 161.49 188.57 165.54 185.37 169.57 C 185.85 165.95 186.38 162.28 188.06 158.98 C 188.98 156.42 191.40 153.67 189.54 150.93 C 195.39 140.68 201.63 130.60 208.40 120.91 Z" />
<path fill="#e4520f" d=" M 189.54 150.93 C 191.40 153.67 188.98 156.42 188.06 158.98 C 186.38 162.28 185.85 165.95 185.37 169.57 C 182.88 173.49 179.79 177.01 177.15 180.84 L 177.07 180.78 C 175.70 179.64 174.33 178.51 172.96 177.38 C 176.84 171.08 180.68 164.76 184.73 158.58 C 186.38 156.06 188.01 153.53 189.54 150.93 Z" />
<path fill="#e1490d" d=" M 100.62 172.48 C 99.38 166.74 97.48 161.15 96.67 155.33 C 97.64 156.89 98.66 158.42 99.69 159.95 C 105.70 169.00 111.18 178.40 117.11 187.51 C 120.10 192.21 123.00 196.97 126.02 201.65 C 130.29 208.45 134.48 215.31 138.82 222.07 C 139.89 223.79 140.91 225.53 141.95 227.28 C 142.98 225.53 144.00 223.78 145.07 222.06 C 152.11 210.95 158.89 199.67 165.95 188.58 C 168.36 184.89 170.67 181.14 172.96 177.38 C 174.33 178.51 175.70 179.64 177.07 180.78 C 169.08 191.70 160.90 202.50 152.83 213.37 C 151.82 214.69 150.83 216.01 149.84 217.34 C 147.20 220.91 144.58 224.50 141.87 228.02 C 139.21 224.57 136.68 221.02 134.07 217.53 C 133.11 216.24 132.14 214.95 131.17 213.68 C 121.01 199.93 110.64 186.32 100.62 172.48 Z" />
<path fill="#f1b428" d=" M 100.35 157.03 C 102.58 160.60 104.92 164.10 107.75 167.23 C 107.17 164.45 106.59 161.67 106.11 158.87 C 110.57 158.77 111.79 163.96 115.81 164.74 C 120.56 166.24 125.16 168.26 130.04 169.36 C 129.84 165.90 129.65 162.43 129.47 158.97 C 137.46 158.10 145.53 158.72 153.55 158.68 C 153.77 162.06 153.98 165.45 154.21 168.83 C 159.30 167.76 164.29 166.16 169.09 164.15 C 170.88 163.62 171.69 161.87 172.69 160.47 C 174.07 160.04 175.46 159.61 176.85 159.20 C 176.26 161.88 175.72 164.58 175.30 167.30 C 177.40 164.43 179.41 161.50 181.48 158.60 C 182.56 158.60 183.65 158.59 184.73 158.58 C 180.68 164.76 176.84 171.08 172.96 177.38 C 170.67 181.14 168.36 184.89 165.95 188.58 C 162.29 189.22 158.41 189.78 155.41 192.15 C 153.38 193.80 151.46 195.57 149.37 197.15 C 149.36 194.89 149.35 192.62 149.57 190.36 C 150.13 186.95 150.57 183.48 150.11 180.02 C 144.53 179.31 138.89 179.34 133.30 179.85 C 133.38 183.35 133.61 186.87 134.44 190.28 C 134.64 191.06 135.02 192.61 135.21 193.38 C 134.04 194.87 132.10 194.19 130.50 194.26 C 131.17 193.54 131.84 192.82 132.52 192.11 C 127.51 190.22 122.56 187.80 117.11 187.51 C 111.18 178.40 105.70 169.00 99.69 159.95 C 99.86 159.22 100.19 157.76 100.35 157.03 Z" />
<path fill="#f7c33b" d=" M 133.30 179.85 C 138.89 179.34 144.53 179.31 150.11 180.02 C 150.57 183.48 150.13 186.95 149.57 190.36 C 144.54 190.05 139.44 189.24 134.44 190.28 C 133.61 186.87 133.38 183.35 133.30 179.85 Z" />
<path fill="#f4bf3b" d=" M 117.11 187.51 C 122.56 187.80 127.51 190.22 132.52 192.11 C 131.84 192.82 131.17 193.54 130.50 194.26 C 132.10 194.19 134.04 194.87 135.21 193.38 C 136.19 197.40 136.63 201.51 136.81 205.64 C 133.30 204.10 129.75 202.60 126.02 201.65 C 123.00 196.97 120.10 192.21 117.11 187.51 Z" />
<path fill="#f7c545" d=" M 155.41 192.15 C 158.41 189.78 162.29 189.22 165.95 188.58 C 158.89 199.67 152.11 210.95 145.07 222.06 C 143.94 215.84 145.84 209.68 145.90 203.46 C 143.32 203.43 140.74 203.59 138.18 203.97 C 137.97 210.03 139.95 216.03 138.82 222.07 C 134.48 215.31 130.29 208.45 126.02 201.65 C 129.75 202.60 133.30 204.10 136.81 205.64 C 136.63 201.51 136.19 197.40 135.21 193.38 C 135.02 192.61 134.64 191.06 134.44 190.28 C 139.44 189.24 144.54 190.05 149.57 190.36 C 149.35 192.62 149.36 194.89 149.37 197.15 C 151.46 195.57 153.38 193.80 155.41 192.15 Z" />
<path fill="#fcd25e" d=" M 138.18 203.97 C 140.74 203.59 143.32 203.43 145.90 203.46 C 145.84 209.68 143.94 215.84 145.07 222.06 C 144.00 223.78 142.98 225.53 141.95 227.28 C 140.91 225.53 139.89 223.79 138.82 222.07 C 139.95 216.03 137.97 210.03 138.18 203.97 Z" />
<path fill="#cfcfcf" d=" M 131.17 213.68 C 132.14 214.95 133.11 216.24 134.07 217.53 C 133.01 219.86 130.78 222.24 131.69 224.98 C 132.89 227.86 136.31 228.57 139.04 229.19 C 143.52 229.96 148.88 229.47 152.18 226.01 C 153.66 222.91 151.18 219.96 149.84 217.34 C 150.83 216.01 151.82 214.69 152.83 213.37 C 155.64 216.53 157.95 220.10 159.64 223.98 C 158.66 226.60 157.73 229.62 155.02 230.97 C 147.31 235.08 137.53 235.40 129.76 231.26 C 126.33 229.55 124.45 225.33 125.78 221.69 C 127.01 218.68 129.08 216.12 131.17 213.68 Z" />
<path fill="#b3b3b3" d=" M 134.07 217.53 C 136.68 221.02 139.21 224.57 141.87 228.02 C 144.58 224.50 147.20 220.91 149.84 217.34 C 151.18 219.96 153.66 222.91 152.18 226.01 C 148.88 229.47 143.52 229.96 139.04 229.19 C 136.31 228.57 132.89 227.86 131.69 224.98 C 130.78 222.24 133.01 219.86 134.07 217.53 Z" />
</svg>
